<svg width="925" height="637" viewBox="0 0 925 637" fill="none" xmlns="http://www.w3.org/2000/svg">
<g opacity="0.5" filter="url(#filter0_f_205_2609)">
<path d="M388.635 680.581C252.944 678.005 204.986 653.163 197.969 641.064L194.296 549.88L429.275 572.614L429.568 688.801C422.304 683.1 399.253 680.945 388.635 680.581Z" fill="url(#paint0_linear_205_2609)" fill-opacity="0.6"/>
<path d="M357.574 631.447C447.454 636.458 490.222 608.857 500.371 594.43L497.271 468.159L191.519 478.503L196.498 640.613C218.328 615.628 312.978 624.092 357.574 631.447Z" fill="url(#paint1_linear_205_2609)" fill-opacity="0.6"/>
<path d="M-98.3167 497.046L-131.172 260.646L-0.0764059 101.338L458.525 177.55L495.507 351.002L499.599 590.544C484.967 534.777 231.109 538.873 106.008 547.893C-36.9782 555.944 -89.786 517.349 -98.3167 497.046Z" fill="url(#paint2_linear_205_2609)" fill-opacity="0.6"/>
<path d="M577.76 420.457C683.063 445.384 807.277 501.018 861.779 507.606L919.126 320.714L869.815 287.347C472.231 137.141 42.5107 231.602 -130.237 280.493L-98.2578 498.629C33.5839 350.129 407.355 384.639 577.76 420.457Z" fill="url(#paint3_linear_205_2609)" fill-opacity="0.6"/>
</g>
<defs>
<filter id="filter0_f_205_2609" x="-136.172" y="96.3383" width="1060.3" height="597.463" filterUnits="userSpaceOnUse" color-interpolation-filters="sRGB">
<feFlood flood-opacity="0" result="BackgroundImageFix"/>
<feBlend mode="normal" in="SourceGraphic" in2="BackgroundImageFix" result="shape"/>
<feGaussianBlur stdDeviation="2.5" result="effect1_foregroundBlur_205_2609"/>
</filter>
<linearGradient id="paint0_linear_205_2609" x1="335.133" y1="543.727" x2="293.498" y2="679.415" gradientUnits="userSpaceOnUse">
<stop offset="0.40024" stop-color="#D9D9D9" stop-opacity="0"/>
<stop offset="0.727215" stop-color="#8B704C"/>
<stop offset="1" stop-color="#4D7B42"/>
</linearGradient>
<linearGradient id="paint1_linear_205_2609" x1="344.089" y1="421.156" x2="346.106" y2="686.532" gradientUnits="userSpaceOnUse">
<stop offset="0.453168" stop-color="#D9D9D9" stop-opacity="0"/>
<stop offset="0.729821" stop-color="#AD8E72"/>
<stop offset="0.799054" stop-color="#697861"/>
</linearGradient>
<linearGradient id="paint2_linear_205_2609" x1="298.224" y1="122.658" x2="307.387" y2="613.111" gradientUnits="userSpaceOnUse">
<stop offset="0.607385" stop-color="#979797" stop-opacity="0"/>
<stop offset="0.754201" stop-color="#C0A794"/>
<stop offset="0.843198" stop-color="#6D9F79"/>
</linearGradient>
<linearGradient id="paint3_linear_205_2609" x1="25.7651" y1="-170.427" x2="126.405" y2="745.007" gradientUnits="userSpaceOnUse">
<stop offset="0.475415" stop-color="#D9D9D9" stop-opacity="0"/>
<stop offset="0.598308" stop-color="#FEC888" stop-opacity="0.65"/>
<stop offset="0.640824" stop-color="#D2D69D" stop-opacity="0.803886"/>
<stop offset="0.66837" stop-color="#A8E3B1" stop-opacity="0.949843"/>
<stop offset="0.798077" stop-color="#9AE7B8"/>
</linearGradient>
</defs>
</svg>
