<svg width="69" height="18" viewBox="0 0 69 18" fill="none" xmlns="http://www.w3.org/2000/svg">
<path d="M0.193915 17V16.616L2.20992 15.632V2.528L0.193915 1.544V1.16H7.92192C9.76192 1.16 11.3219 1.472 12.6019 2.096C13.8979 2.72 14.8819 3.576 15.5539 4.664C16.2419 5.752 16.5859 6.984 16.5859 8.36C16.5859 9.608 16.3619 10.76 15.9139 11.816C15.4819 12.872 14.8659 13.784 14.0659 14.552C13.2819 15.32 12.3459 15.92 11.2579 16.352C10.1859 16.784 9.01792 17 7.75392 17H0.193915ZM7.10592 2.48H5.20992V15.68H7.46592C8.72992 15.68 9.80192 15.416 10.6819 14.888C11.5779 14.344 12.2579 13.584 12.7219 12.608C13.2019 11.616 13.4419 10.448 13.4419 9.104C13.4419 7.088 12.8979 5.48 11.8099 4.28C10.7379 3.08 9.16992 2.48 7.10592 2.48ZM17.9783 17V16.616L19.9943 15.632V2.528L17.9783 1.544V1.16H25.7063C27.5463 1.16 29.1063 1.472 30.3863 2.096C31.6823 2.72 32.6663 3.576 33.3383 4.664C34.0263 5.752 34.3703 6.984 34.3703 8.36C34.3703 9.608 34.1463 10.76 33.6983 11.816C33.2663 12.872 32.6503 13.784 31.8503 14.552C31.0663 15.32 30.1303 15.92 29.0423 16.352C27.9703 16.784 26.8023 17 25.5383 17H17.9783ZM24.8903 2.48H22.9943V15.68H25.2503C26.5143 15.68 27.5863 15.416 28.4663 14.888C29.3623 14.344 30.0423 13.584 30.5063 12.608C30.9863 11.616 31.2263 10.448 31.2263 9.104C31.2263 7.088 30.6823 5.48 29.5943 4.28C28.5223 3.08 26.9543 2.48 24.8903 2.48ZM35.7627 17V16.616L37.7787 15.632V2.528L35.7627 1.544V1.16H43.2267C45.1147 1.16 46.6267 1.504 47.7627 2.192C48.9147 2.864 49.4907 3.944 49.4907 5.432C49.4907 6.328 49.1867 7.12 48.5787 7.808C47.9867 8.48 47.1707 9.008 46.1307 9.392C45.1067 9.776 43.9467 9.968 42.6507 9.968H40.7787V15.632L43.1307 16.616V17H35.7627ZM40.7787 2.48V8.744H42.3147C43.5787 8.744 44.5707 8.456 45.2907 7.88C46.0107 7.288 46.3707 6.544 46.3707 5.648C46.3707 4.528 46.0027 3.72 45.2667 3.224C44.5467 2.728 43.5067 2.48 42.1467 2.48H40.7787ZM49.9589 11.672V9.992H56.5589V11.672H49.9589ZM62.9451 17.24C61.7611 17.24 60.7451 16.912 59.8971 16.256C59.0491 15.6 58.4011 14.664 57.9531 13.448C57.5211 12.216 57.3051 10.76 57.3051 9.08C57.3051 7.512 57.5451 6.12 58.0251 4.904C58.5051 3.672 59.1611 2.704 59.9931 2C60.8411 1.28 61.8251 0.92 62.9451 0.92C64.1291 0.92 65.1451 1.248 65.9931 1.904C66.8411 2.56 67.4811 3.504 67.9131 4.736C68.3611 5.952 68.5851 7.4 68.5851 9.08C68.5851 10.648 68.3451 12.048 67.8651 13.28C67.3851 14.496 66.7211 15.464 65.8731 16.184C65.0251 16.888 64.0491 17.24 62.9451 17.24ZM63.3771 16.088C63.8411 16.088 64.2251 15.816 64.5291 15.272C64.8491 14.728 65.0891 13.984 65.2491 13.04C65.4091 12.096 65.4891 11.024 65.4891 9.824C65.4891 8.336 65.3851 7.008 65.1771 5.84C64.9691 4.656 64.6491 3.728 64.2171 3.056C63.8011 2.384 63.2571 2.048 62.5851 2.048C62.1211 2.048 61.7211 2.312 61.3851 2.84C61.0651 3.368 60.8171 4.104 60.6411 5.048C60.4811 5.976 60.4011 7.056 60.4011 8.288C60.4011 9.792 60.5051 11.136 60.7131 12.32C60.9211 13.488 61.2411 14.408 61.6731 15.08C62.1211 15.752 62.6891 16.088 63.3771 16.088Z" fill="url(#paint0_linear_106_362)"/>
<defs>
<linearGradient id="paint0_linear_106_362" x1="-1.05408" y1="-9" x2="73.9931" y2="15.7066" gradientUnits="userSpaceOnUse">
<stop stop-color="#C99BDB"/>
<stop offset="1" stop-color="#416EB7"/>
</linearGradient>
</defs>
</svg>
