<svg width="216" height="253" viewBox="0 0 216 253" fill="none" xmlns="http://www.w3.org/2000/svg">
<path d="M80.5985 160.945C84.1888 147.627 85.347 128.433 90.4094 121.918L144.944 126.118C147.558 128.753 148.419 142.329 148.915 147.178C151.442 171.903 138.766 188.965 132.112 194.405C118.756 207.52 105.029 214.08 99.8348 215.721C92.0797 218.616 86.024 212.536 83.9656 209.134C79.6284 200.825 82.8286 196.408 84.9708 195.238C89.1715 193.826 92.7618 184.815 92.7977 184.091L88.597 180.69C85.4376 178.048 83.5809 181.694 83.5809 183.295C83.5809 184.381 66.2754 199.942 61.8595 201.1C54.8982 202.926 50.4784 197.638 49.366 195.238C45.4885 186.871 47.2471 181.944 50.4784 180.69L80.5985 160.945Z" fill="url(#paint0_linear_330_3178)"/>
<path d="M58.228 190.232C59.9425 193.666 61.0569 198.267 58.6418 199.472C56.2268 200.678 51.9705 197.762 50.0684 193.952C48.1663 190.142 48.2713 185.783 50.2278 184.806C52.1842 183.83 56.5136 186.797 58.228 190.232Z" fill="url(#paint1_linear_330_3178)"/>
<path d="M95.0656 204.812C97.6841 209.337 98.179 212.856 95.9351 214.154C93.0372 215.831 87.7843 212.96 85.3644 208.778C82.9445 204.595 82.4665 200.624 85.3643 198.947C88.2622 197.27 92.4471 200.287 95.0656 204.812Z" fill="url(#paint2_linear_330_3178)"/>
<path d="M171.695 160.226C166.539 172.159 153.038 172.946 146.932 171.847C141.743 174.949 133.356 181.919 141.321 184.989C149.285 188.059 156.586 188.271 159.241 187.994C179.225 185.904 185.694 171.847 187.443 167.177C192.279 154.26 187.443 150.265 182.917 149.691C176.473 148.875 173.07 156.075 171.695 160.226Z" fill="url(#paint3_linear_330_3178)"/>
<path d="M91.749 121.933C89.794 121.535 81.1778 130.1 76.7971 130.933L78.1369 133.663L85.7754 133.032L87.8754 128.884L91.749 121.933Z" fill="url(#paint4_linear_330_3178)"/>
<path d="M25.1902 158.013L41.228 139.006V155.985L25.1902 158.013Z" fill="url(#paint5_linear_330_3178)"/>
<path d="M81.8281 173.905L81.8283 129.34L149.238 145.848L149.238 199.826L81.8281 173.905Z" fill="url(#paint6_linear_330_3178)"/>
<path d="M41.3867 185.599L41.3877 138.608L81.8265 129.304L81.8262 175.209L41.3867 185.599Z" fill="url(#paint7_linear_330_3178)"/>
<g filter="url(#filter0_d_330_3178)">
<path d="M113.708 157.929C104.356 155.768 89.2349 146.826 81.9827 129.293L81.4338 127.965L81.04 129.348C78.3183 138.917 76.0008 144.879 73.1668 149.416C70.3393 153.943 66.9792 157.083 62.1128 160.983L62.7382 161.763C65.931 159.204 68.5125 156.941 70.7328 154.382C71.1684 154.315 71.6986 154.362 72.2984 154.53C73.0022 154.727 73.7647 155.079 74.5175 155.544C75.9226 156.413 77.2456 157.646 78.0666 158.906C77.1576 161.829 75.9455 164.842 74.318 168.218L74.768 168.435L75.2185 168.652C76.313 166.382 77.2212 164.27 77.9789 162.241C79.0164 161.364 80.4767 160.81 82.1488 160.506C83.8555 160.195 85.7388 160.151 87.519 160.259C89.2978 160.367 90.9587 160.626 92.2124 160.911C92.8397 161.054 93.3574 161.202 93.733 161.337C93.9212 161.405 94.0655 161.466 94.166 161.518C94.2814 161.578 94.291 161.601 94.2677 161.572L94.2772 161.565C96.6987 164.612 99.3031 167.416 101.962 169.923L102.648 169.196C101.613 168.22 100.589 167.198 99.5806 166.137C100.981 163.761 102.193 162.105 103.642 160.832C105.144 159.511 106.927 158.573 109.494 157.688C110.9 158.21 112.239 158.616 113.482 158.903L113.708 157.929ZM89.6525 155.058C90.7509 156.801 91.9214 158.49 93.1492 160.114C92.9262 160.054 92.6871 159.994 92.4337 159.936C91.1275 159.639 89.4138 159.372 87.5808 159.261C85.749 159.15 83.7797 159.192 81.9699 159.521C80.7409 159.744 79.5639 160.105 78.5491 160.654C78.9834 159.381 79.3579 158.133 79.6838 156.889C80.2342 156.32 81.0599 155.854 82.0477 155.501C83.0471 155.143 84.1764 154.91 85.2702 154.787C86.3642 154.665 87.4072 154.653 88.2294 154.729C88.6408 154.768 88.9863 154.826 89.2499 154.9C89.4613 154.958 89.5871 155.017 89.6525 155.058ZM76.9097 150.588C78.0078 151.134 79.0137 151.94 79.5765 152.753C79.2752 154.403 78.9022 156.019 78.4386 157.652C77.5448 156.498 76.3296 155.433 75.0681 154.653C74.2641 154.155 73.4269 153.765 72.6265 153.541C72.2815 153.445 71.9359 153.378 71.5977 153.348C72.441 152.299 73.2345 151.192 73.9892 149.987C74.7206 149.812 75.8035 150.038 76.9097 150.588ZM86.0421 148.533C86.9046 150.336 87.8556 152.096 88.8805 153.804C88.7033 153.776 88.5161 153.752 88.321 153.734C87.4211 153.65 86.3092 153.664 85.158 153.793C84.0067 153.923 82.7985 154.17 81.7098 154.559C81.1261 154.768 80.5674 155.025 80.0656 155.331C80.3901 153.918 80.6547 152.501 80.8721 151.048C81.8065 149.986 82.6271 149.263 83.4693 148.857C84.2395 148.485 85.0552 148.365 86.0421 148.533ZM78.6703 144.641C79.2469 144.829 79.8116 145.308 80.4136 146.292C80.2623 148.072 80.0656 149.76 79.8056 151.404C79.1462 150.716 78.2825 150.102 77.3901 149.659C76.505 149.219 75.5249 148.914 74.6385 148.907C75.3728 147.644 76.0753 146.276 76.7597 144.765C77.5375 144.517 78.1433 144.469 78.6703 144.641ZM83.5178 142.363C84.1068 144.098 84.7883 145.801 85.5458 147.468C84.6426 147.412 83.8214 147.575 83.0345 147.955C82.3636 148.279 81.7324 148.754 81.1033 149.353C81.3435 147.402 81.511 145.37 81.6327 143.19C82.0173 142.798 82.341 142.547 82.6532 142.421C82.9115 142.316 83.1847 142.286 83.5178 142.363ZM108.089 157.137C105.992 157.944 104.383 158.848 102.981 160.08C101.472 161.407 100.23 163.092 98.8667 165.377C97.9694 164.408 97.0874 163.406 96.2257 162.374C97.147 160.45 97.9929 159.077 99.124 157.997C100.302 156.874 101.823 156.035 104.142 155.259C105.489 155.98 106.811 156.606 108.089 157.137ZM102.97 154.613C101.019 155.341 99.5934 156.168 98.4347 157.274C97.2656 158.389 96.3971 159.762 95.5257 161.525C94.5315 160.299 93.5687 159.032 92.6437 157.729C93.3824 155.997 94.1303 154.89 95.1241 154.103C96.1349 153.303 97.4459 152.796 99.3819 152.351C100.583 153.181 101.783 153.934 102.97 154.613ZM80.7935 139.463C80.7296 141.317 80.6506 143.053 80.5367 144.704C80.0785 144.188 79.5858 143.843 79.0339 143.663C78.4724 143.48 77.886 143.481 77.2698 143.602C77.8545 142.234 78.4299 140.754 79.0063 139.137C79.4629 139.022 79.8115 138.987 80.095 139.041C80.346 139.089 80.5746 139.21 80.7935 139.463ZM98.3067 151.588C96.7369 152.006 95.5108 152.521 94.5027 153.318C93.4541 154.149 92.679 155.253 91.975 156.768C90.8568 155.137 89.7996 153.452 88.824 151.718C89.8218 150.484 90.6465 149.753 91.5268 149.336C92.4309 148.907 93.4463 148.78 94.8713 148.849C96.0049 149.834 97.1535 150.747 98.3067 151.588ZM90.84 144.945C91.7875 145.968 92.7582 146.933 93.7446 147.842C92.7625 147.88 91.9068 148.048 91.0981 148.432C90.1148 148.899 89.2445 149.66 88.305 150.774C87.5676 149.41 86.8783 148.019 86.2491 146.601C86.9159 145.906 87.4777 145.492 88.1277 145.248C88.8057 144.994 89.6264 144.906 90.84 144.945ZM81.8858 136.371C82.228 138.044 82.6623 139.695 83.1763 141.321C82.8655 141.319 82.5668 141.376 82.2764 141.494C82.0766 141.575 81.8863 141.682 81.7026 141.809C81.7819 140.1 81.8392 138.298 81.8858 136.371ZM86.1917 139.136C87.3725 140.854 88.6275 142.455 89.9345 143.942C89.1056 143.967 88.4097 144.074 87.7769 144.312C87.0509 144.584 86.4427 145.014 85.8228 145.613C85.054 143.788 84.3824 141.923 83.8255 140.025C84.2745 139.532 84.6132 139.303 84.9429 139.193C85.2664 139.086 85.6359 139.077 86.1917 139.136ZM80.9535 133.192C80.9198 134.958 80.8821 136.619 80.8355 138.194C80.6824 138.122 80.5212 138.068 80.3493 138.035C80.0441 137.977 79.724 137.985 79.3925 138.034C79.9071 136.538 80.4259 134.93 80.9535 133.192ZM82.2521 132.34C83.2357 134.384 84.3265 136.302 85.4979 138.099C85.1984 138.108 84.9103 138.15 84.6276 138.244C84.2305 138.375 83.8745 138.601 83.516 138.923C82.9374 136.765 82.5074 134.568 82.2521 132.34Z" fill="url(#paint8_linear_330_3178)"/>
</g>
<g filter="url(#filter1_d_330_3178)">
<path d="M137.354 143.323C132.312 144.302 129.077 145.123 126.323 145.396C123.62 145.663 121.427 145.393 118.538 144.163L118.147 145.082C120.054 145.894 121.693 146.313 123.355 146.444C123.372 146.493 123.39 146.547 123.404 146.608C123.456 146.827 123.475 147.095 123.458 147.383C123.431 147.856 123.309 148.343 123.125 148.733C121.631 148.978 120.026 149.119 118.171 149.165L118.184 149.665L118.196 150.165C119.471 150.133 120.634 150.054 121.724 149.932C122.309 150.176 122.875 150.65 123.396 151.285C123.94 151.947 124.413 152.748 124.795 153.545C125.178 154.341 125.464 155.117 125.639 155.721C125.727 156.023 125.784 156.273 125.813 156.456C125.827 156.547 125.833 156.612 125.834 156.652C125.834 156.656 125.834 156.66 125.834 156.663C125.058 158.413 124.436 160.187 123.959 161.916L124.923 162.182C125.092 161.57 125.279 160.953 125.485 160.335C126.799 160.417 127.768 160.574 128.629 160.897C129.539 161.238 130.359 161.777 131.347 162.661C131.457 163.374 131.6 164.036 131.771 164.634L132.733 164.358C131.432 159.822 131.751 151.23 137.829 144.139L138.763 143.049L137.354 143.323ZM127.64 153.132C127.241 153.811 126.869 154.501 126.522 155.199C126.33 154.587 126.053 153.855 125.696 153.112C125.291 152.268 124.778 151.392 124.169 150.65C123.892 150.313 123.587 149.999 123.259 149.724C123.71 149.651 124.15 149.564 124.584 149.472C124.92 149.579 125.288 149.806 125.659 150.134C126.05 150.479 126.421 150.909 126.737 151.351C127.053 151.794 127.306 152.237 127.466 152.598C127.546 152.779 127.598 152.93 127.625 153.043C127.634 153.082 127.637 153.112 127.64 153.132ZM126.256 148.024C125.623 148.206 124.988 148.369 124.338 148.506C124.441 148.158 124.503 147.794 124.523 147.446C124.542 147.118 124.522 146.789 124.457 146.488C125.019 146.491 125.59 146.465 126.182 146.413C126.263 146.58 126.329 146.817 126.352 147.102C126.381 147.446 126.341 147.78 126.256 148.024ZM129.673 150.085C129.191 150.721 128.737 151.375 128.309 152.043C128.12 151.647 127.86 151.204 127.551 150.771C127.201 150.281 126.781 149.791 126.321 149.385C126.221 149.297 126.117 149.211 126.011 149.13C126.524 148.992 127.034 148.842 127.545 148.675C128.211 148.84 128.687 149.025 129.031 149.27C129.314 149.472 129.524 149.727 129.673 150.085ZM129.767 146.109C129.775 146.274 129.704 146.524 129.425 146.926C128.739 147.2 128.072 147.444 127.412 147.664C127.431 147.459 127.433 147.252 127.417 147.052C127.396 146.806 127.347 146.542 127.259 146.294C128.023 146.193 128.83 146.058 129.7 145.894C129.744 145.97 129.763 146.04 129.767 146.109ZM125.844 156.64C125.847 156.628 125.85 156.613 125.857 156.597L125.862 156.6C125.856 156.613 125.85 156.627 125.844 156.64ZM131.181 161.221C130.453 160.66 129.753 160.25 128.979 159.96C128.057 159.614 127.056 159.446 125.826 159.356C125.992 158.901 126.169 158.446 126.356 157.991C127.361 157.972 128.116 158.038 128.808 158.268C129.542 158.511 130.245 158.95 131.114 159.736C131.119 160.247 131.143 160.743 131.181 161.221ZM131.83 147.559C131.312 148.095 130.818 148.652 130.347 149.227C130.153 148.926 129.911 148.67 129.611 148.456C129.443 148.336 129.259 148.232 129.063 148.139C129.784 147.867 130.519 147.566 131.286 147.235C131.502 147.304 131.639 147.371 131.728 147.444C131.768 147.476 131.802 147.513 131.83 147.559ZM131.136 158.447C130.457 157.914 129.815 157.549 129.122 157.319C128.399 157.08 127.647 156.995 126.784 156.988C127.029 156.44 127.287 155.895 127.562 155.356C128.433 155.307 129.04 155.388 129.566 155.616C130.11 155.851 130.616 156.263 131.249 156.955C131.195 157.462 131.158 157.96 131.136 158.447ZM131.417 155.699C130.949 155.259 130.484 154.924 129.963 154.698C129.398 154.454 128.797 154.35 128.1 154.342C128.475 153.665 128.876 152.999 129.302 152.348C129.999 152.498 130.452 152.68 130.793 152.926C131.15 153.185 131.426 153.544 131.721 154.124C131.601 154.655 131.5 155.18 131.417 155.699ZM132.537 145.584C131.942 145.856 131.371 146.11 130.817 146.348C130.83 146.259 130.836 146.171 130.832 146.083C130.824 145.942 130.793 145.813 130.746 145.69C131.301 145.58 131.881 145.46 132.491 145.333C132.506 145.362 132.518 145.389 132.527 145.414C132.543 145.464 132.549 145.518 132.537 145.584ZM132.486 151.453C132.331 151.898 132.191 152.343 132.064 152.785C131.866 152.53 131.644 152.307 131.38 152.116C130.971 151.82 130.489 151.619 129.902 151.464C130.239 150.987 130.59 150.521 130.956 150.065C131.33 150.184 131.582 150.313 131.79 150.491C132.023 150.69 132.233 150.977 132.486 151.453ZM133.965 148.057C133.577 148.792 133.233 149.531 132.932 150.27C132.782 150.065 132.622 149.886 132.441 149.731C132.198 149.524 131.933 149.371 131.636 149.248C132.166 148.639 132.725 148.055 133.312 147.499C133.541 147.569 133.66 147.639 133.738 147.71C133.814 147.781 133.883 147.88 133.965 148.057ZM132.544 146.847C132.509 146.806 132.471 146.767 132.43 146.729C132.582 146.661 132.736 146.592 132.891 146.521C132.774 146.629 132.659 146.738 132.544 146.847ZM133.532 145.124C133.531 145.122 133.53 145.12 133.529 145.118C133.538 145.116 133.547 145.114 133.556 145.112C133.548 145.116 133.54 145.12 133.532 145.124ZM135.307 145.808C135.025 146.227 134.761 146.648 134.512 147.072C134.482 147.039 134.45 147.007 134.417 146.976C134.328 146.894 134.23 146.825 134.126 146.764C134.509 146.433 134.901 146.113 135.307 145.808Z" fill="url(#paint9_linear_330_3178)"/>
</g>
<path d="M41.3003 185.925V138.645L110.52 159.765V213.729L41.3003 185.925Z" fill="url(#paint10_linear_330_3178)"/>
<mask id="mask0_330_3178" style="mask-type:alpha" maskUnits="userSpaceOnUse" x="41" y="138" width="70" height="76">
<path d="M41.3003 185.925V138.645L110.52 159.765V213.729L41.3003 185.925Z" fill="url(#paint11_linear_330_3178)"/>
</mask>
<g mask="url(#mask0_330_3178)">
<g filter="url(#filter2_f_330_3178)">
<path d="M101.703 186.83L110.427 159.787L36.607 134.445L24.6636 159.461L101.703 186.83Z" fill="#AF6815" fill-opacity="0.4"/>
</g>
</g>
<path d="M110.505 213.729V160.003L149.241 146.102V199.999L110.505 213.729Z" fill="url(#paint12_linear_330_3178)"/>
<mask id="mask1_330_3178" style="mask-type:alpha" maskUnits="userSpaceOnUse" x="110" y="146" width="40" height="68">
<path d="M110.505 213.729V160.003L149.241 146.102V199.999L110.505 213.729Z" fill="url(#paint13_linear_330_3178)"/>
</mask>
<g mask="url(#mask1_330_3178)">
<g filter="url(#filter3_f_330_3178)">
<path d="M121.181 180.784L110.356 159.823L149.235 149.631L160.461 163.95L121.181 180.784Z" fill="#995E19" fill-opacity="0.4"/>
</g>
</g>
<path d="M124.982 174.11L110.236 159.627L149.239 146.289L164.43 156.979L124.982 174.11Z" fill="url(#paint14_linear_330_3178)"/>
<path d="M100.311 178.286L110.339 159.75L41.3367 138.572L29.9329 154.248L100.311 178.286Z" fill="url(#paint15_linear_330_3178)"/>
<g filter="url(#filter4_d_330_3178)">
<path d="M139.107 140.201C142.438 137.377 145.736 133.612 145.736 133.612L145.735 128C147.57 126.914 154.881 116.288 156.635 118.081C158.874 120.371 159.595 125.676 159.604 128C159.652 140.432 152.497 155.669 145.736 158.193C137.835 161.669 132.519 159.352 129.723 155.669C126.075 148.781 135.777 143.024 139.107 140.201Z" fill="url(#paint16_linear_330_3178)"/>
</g>
<path d="M89.6621 122.969C87.2736 120.434 89.6621 119.24 90.8076 119.24L120.928 127.313L152.272 119.24C152.272 119.24 157.312 117.574 158.543 118.045C159.774 118.515 158.798 120.615 157.565 121.991C156.333 123.366 147.365 129.594 135.674 131.621C123.983 133.648 101.682 132.852 89.6621 122.969Z" fill="white"/>
<path d="M69.3717 124.814C72.4488 125.494 73.9694 129.883 75.1279 130.896C76.2864 131.91 76.2419 135.494 74.8383 137.051C73.4347 138.607 71.2178 140.132 68.6114 140.671C66.005 141.209 62.5657 140.852 60.3572 139.766C58.349 138.778 57.3524 136.471 57.4248 134.842C57.4972 133.213 57.4249 129.05 58.2575 127.783C61.2622 124.814 67.1875 124.332 69.3717 124.814Z" fill="url(#paint17_linear_330_3178)"/>
<g filter="url(#filter5_f_330_3178)">
<path d="M125.81 40.6273C154.817 42.0963 166.69 59.4991 169.241 77.0873C172.12 77.2423 175.764 78.0446 175.205 89.0967C174.674 99.5711 170.89 99.3756 167.989 99.2076C163.173 117.924 148.541 131.124 121.297 129.745C95.9275 128.46 82.7152 115.701 78.6755 98.5226C78.482 98.6029 78.2479 98.6387 77.9654 98.6245C75.0244 98.4755 70.8517 98.7805 71.4069 87.817C71.9414 77.262 75.346 76.3934 78.1601 76.4556C81.8654 57.0304 97.9721 39.2175 125.81 40.6273Z" fill="url(#paint18_linear_330_3178)"/>
</g>
<path d="M125.81 40.6273C154.817 42.0963 166.69 59.4991 169.241 77.0873C172.12 77.2423 175.764 78.0446 175.205 89.0967C174.674 99.5711 170.89 99.3756 167.989 99.2076C163.173 117.924 148.541 131.124 121.297 129.745C95.9275 128.46 82.7152 115.701 78.6755 98.5226C78.482 98.6029 78.2479 98.6387 77.9654 98.6245C75.0244 98.4755 70.8517 98.7805 71.4069 87.817C71.9414 77.262 75.346 76.3934 78.1601 76.4556C81.8654 57.0304 97.9721 39.2175 125.81 40.6273Z" fill="url(#paint19_linear_330_3178)"/>
<path d="M81.381 83.476C78.9371 106.16 96.0875 125.099 119.237 127.561C142.386 130.023 162.768 115.074 165.212 92.3907C167.656 69.7072 151.403 54.4138 128.253 51.9521C105.104 49.4904 83.825 60.7926 81.381 83.476Z" fill="#737373"/>
<path d="M128.2 52.4492C116.716 51.228 105.726 53.4248 97.3184 58.708C88.922 63.9843 83.083 72.3479 81.8783 83.5289C79.4678 105.902 96.3787 124.628 119.29 127.064C142.196 129.5 162.304 114.717 164.715 92.3378C165.922 81.1367 162.514 71.7901 155.968 64.9341C149.414 58.0697 139.682 53.6703 128.2 52.4492Z" stroke="white" stroke-opacity="0.4"/>
<mask id="mask2_330_3178" style="mask-type:alpha" maskUnits="userSpaceOnUse" x="87" y="57" width="71" height="67">
<path d="M150.2 81.9338C150.416 72.5003 149.363 57.0865 143.466 60.3695C141.53 61.6072 137.17 64.5405 133.903 67.1779C132.171 66.5176 130.309 65.9964 128.311 65.6463C124.986 65.1645 120.176 65.3568 115.06 67.0477C111.972 64.0389 107.42 60.4306 105.464 58.9552C99.545 55.03 97.4327 72.2996 97.0763 81.4994C95.1229 84.6441 93.4247 88.3578 92.1152 92.7335C91.3728 95.2145 90.613 100.112 87.7621 103.62C87.5729 104.479 88.1986 105.652 92.2144 103.468C92.56 103.489 92.7091 104.369 90.5387 107.716C91.5162 108.12 93.5589 110.113 96.525 112.719C108.398 123.152 128.283 128.958 148.835 115.368C149.646 114.832 153.108 110.885 155.104 110.986C152.938 108.814 150.018 106.001 153.052 106.548C154.141 106.745 157.914 109.616 157.066 107.129C156.074 104.223 155.687 99.4925 154.499 94.346C154.047 91.1279 152.726 86.5308 150.2 81.9338Z" fill="url(#paint20_linear_330_3178)"/>
<path d="M150.2 81.9338L149.762 82.1746L149.697 82.0568L149.7 81.9224L150.2 81.9338ZM143.466 60.3695L143.197 59.9482L143.21 59.9401L143.223 59.9327L143.466 60.3695ZM133.903 67.1779L134.217 67.5669L133.994 67.7474L133.725 67.6451L133.903 67.1779ZM128.311 65.6463L128.382 65.1514L128.39 65.1525L128.397 65.1538L128.311 65.6463ZM115.06 67.0477L115.217 67.5225L114.928 67.6177L114.711 67.4058L115.06 67.0477ZM105.464 58.9552L105.74 58.5385L105.753 58.5469L105.765 58.556L105.464 58.9552ZM97.0763 81.4994L97.5759 81.5187L97.5708 81.6508L97.501 81.7632L97.0763 81.4994ZM92.1152 92.7335L91.6362 92.5902L91.6362 92.5902L92.1152 92.7335ZM87.7621 103.62L87.2738 103.512L87.2993 103.396L87.3741 103.304L87.7621 103.62ZM92.2144 103.468L91.9755 103.028L92.1021 102.96L92.2458 102.969L92.2144 103.468ZM90.5387 107.716L90.3477 108.178L89.7922 107.948L90.1192 107.444L90.5387 107.716ZM96.525 112.719L96.1949 113.095L96.525 112.719ZM148.835 115.368L149.111 115.786L149.111 115.786L148.835 115.368ZM155.104 110.986L155.458 110.633L156.374 111.551L155.079 111.485L155.104 110.986ZM153.052 106.548L153.141 106.056L153.141 106.056L153.052 106.548ZM157.066 107.129L157.539 106.967L157.539 106.967L157.066 107.129ZM154.499 94.346L154.012 94.4585L154.007 94.4372L154.004 94.4156L154.499 94.346ZM150.2 81.9338L149.7 81.9224C149.808 77.2184 149.598 71.0519 148.636 66.486C148.152 64.1882 147.493 62.3762 146.649 61.3438C146.235 60.8372 145.803 60.551 145.354 60.4557C144.908 60.3613 144.37 60.4384 143.709 60.8064L143.466 60.3695L143.223 59.9327C144.036 59.4798 144.821 59.3205 145.561 59.4775C146.297 59.6336 146.913 60.0867 147.424 60.7108C148.429 61.94 149.125 63.9555 149.615 66.2799C150.6 70.9586 150.808 77.2157 150.7 81.9453L150.2 81.9338ZM143.466 60.3695L143.735 60.7908C141.806 62.024 137.464 64.946 134.217 67.5669L133.903 67.1779L133.589 66.7888C136.876 64.1349 141.254 61.1904 143.197 59.9482L143.466 60.3695ZM133.903 67.1779L133.725 67.6451C132.022 66.9961 130.192 66.4835 128.224 66.1388L128.311 65.6463L128.397 65.1538C130.427 65.5094 132.319 66.039 134.081 66.7107L133.903 67.1779ZM128.311 65.6463L128.239 66.1411C124.992 65.6705 120.26 65.8558 115.217 67.5225L115.06 67.0477L114.903 66.573C120.093 64.8578 124.981 64.6585 128.382 65.1514L128.311 65.6463ZM115.06 67.0477L114.711 67.4058C111.645 64.419 107.113 60.8256 105.163 59.3544L105.464 58.9552L105.765 58.556C107.726 60.0357 112.298 63.6588 115.409 66.6896L115.06 67.0477ZM105.464 58.9552L105.187 59.3719C104.525 58.9328 103.975 58.826 103.509 58.9114C103.034 58.9984 102.559 59.3009 102.086 59.8531C101.128 60.9726 100.321 62.9558 99.6676 65.4329C98.3688 70.3578 97.7535 76.933 97.5759 81.5187L97.0763 81.4994L96.5766 81.48C96.7554 76.8659 97.3745 70.2065 98.7007 65.1779C99.3599 62.6784 100.212 60.5051 101.326 59.203C101.89 58.5444 102.553 58.0698 103.329 57.9278C104.112 57.7841 104.923 57.9963 105.74 58.5385L105.464 58.9552ZM97.0763 81.4994L97.501 81.7632C95.5724 84.868 93.8918 88.5408 92.5942 92.8769L92.1152 92.7335L91.6362 92.5902C92.9575 88.1748 94.6733 84.4202 96.6515 81.2355L97.0763 81.4994ZM92.1152 92.7335L92.5942 92.8769C92.4125 93.4841 92.23 94.2382 92.0072 95.1115C91.7863 95.9773 91.5295 96.9439 91.205 97.9457C90.5571 99.9458 89.631 102.113 88.1501 103.935L87.7621 103.62L87.3741 103.304C88.7441 101.619 89.6233 99.5834 90.2537 97.6375C90.5683 96.6664 90.8188 95.7242 91.0382 94.8643C91.2558 94.0119 91.4467 93.2234 91.6362 92.5902L92.1152 92.7335ZM87.7621 103.62L88.2504 103.727C88.2183 103.873 88.2327 103.984 88.2637 104.049C88.2827 104.088 88.3278 104.158 88.5099 104.195C88.7148 104.236 89.0739 104.227 89.6559 104.054C90.2317 103.884 90.9902 103.564 91.9755 103.028L92.2144 103.468L92.4533 103.907C91.4307 104.463 90.6051 104.816 89.94 105.013C89.2812 105.208 88.7427 105.262 88.3129 105.175C87.8602 105.084 87.5334 104.837 87.3628 104.483C87.2041 104.153 87.2113 103.796 87.2738 103.512L87.7621 103.62ZM92.2144 103.468L92.2458 102.969C92.3998 102.978 92.5571 103.039 92.683 103.164C92.8034 103.284 92.8647 103.432 92.8931 103.568C92.9471 103.828 92.9027 104.14 92.7993 104.488C92.5876 105.199 92.0506 106.304 90.9583 107.988L90.5387 107.716L90.1192 107.444C91.1972 105.782 91.6709 104.773 91.8409 104.202C91.8824 104.063 91.9031 103.958 91.9115 103.883C91.9157 103.846 91.9166 103.818 91.9162 103.799C91.9158 103.78 91.914 103.772 91.9141 103.772C91.9141 103.772 91.9165 103.783 91.9257 103.802C91.935 103.821 91.9515 103.847 91.9784 103.874C92.0384 103.934 92.1155 103.962 92.183 103.967L92.2144 103.468ZM90.5387 107.716L90.7298 107.254C91.0365 107.381 91.3897 107.614 91.7713 107.903C92.1604 108.198 92.6103 108.576 93.1146 109.015C94.1064 109.879 95.3962 111.062 96.855 112.344L96.525 112.719L96.1949 113.095C94.6877 111.771 93.4731 110.654 92.4577 109.769C91.9584 109.334 91.5289 108.974 91.1674 108.7C90.7985 108.421 90.5298 108.253 90.3477 108.178L90.5387 107.716ZM96.525 112.719L96.855 112.344C108.59 122.655 128.228 128.395 148.559 114.951L148.835 115.368L149.111 115.786C128.338 129.521 108.206 123.649 96.1949 113.095L96.525 112.719ZM148.835 115.368L148.559 114.951C148.625 114.908 148.743 114.811 148.92 114.651C149.091 114.496 149.296 114.303 149.532 114.08C150.001 113.637 150.581 113.088 151.2 112.558C151.817 112.03 152.488 111.508 153.143 111.122C153.782 110.745 154.479 110.454 155.13 110.487L155.104 110.986L155.079 111.485C154.732 111.468 154.247 111.631 153.65 111.983C153.069 112.326 152.449 112.805 151.85 113.318C151.253 113.829 150.69 114.362 150.219 114.807C149.986 115.027 149.772 115.23 149.59 115.393C149.415 115.551 149.247 115.695 149.111 115.786L148.835 115.368ZM155.104 110.986L154.75 111.339C153.688 110.274 152.37 108.985 151.716 108.03C151.55 107.788 151.406 107.54 151.324 107.303C151.246 107.078 151.189 106.762 151.348 106.468C151.516 106.157 151.831 106.037 152.111 105.998C152.394 105.958 152.741 105.984 153.141 106.056L153.052 106.548L152.963 107.041C152.605 106.976 152.379 106.97 152.249 106.988C152.117 107.007 152.179 107.034 152.228 106.943C152.268 106.869 152.225 106.848 152.269 106.976C152.309 107.091 152.395 107.254 152.54 107.465C153.129 108.322 154.354 109.526 155.458 110.633L155.104 110.986ZM153.052 106.548L153.141 106.056C153.34 106.092 153.565 106.181 153.777 106.276C153.997 106.375 154.241 106.499 154.49 106.629C154.997 106.894 155.521 107.181 155.988 107.388C156.22 107.491 156.419 107.565 156.578 107.605C156.753 107.649 156.812 107.634 156.802 107.637C156.786 107.642 156.75 107.659 156.718 107.697C156.688 107.734 156.686 107.761 156.687 107.751C156.693 107.713 156.691 107.578 156.593 107.29L157.066 107.129L157.539 106.967C157.653 107.301 157.718 107.621 157.676 107.901C157.653 108.05 157.598 108.203 157.489 108.334C157.379 108.467 157.239 108.549 157.097 108.593C156.837 108.673 156.556 108.631 156.333 108.575C156.095 108.514 155.837 108.415 155.583 108.302C155.077 108.078 154.506 107.765 154.026 107.515C153.781 107.387 153.558 107.274 153.367 107.188C153.167 107.098 153.036 107.054 152.963 107.041L153.052 106.548ZM157.066 107.129L156.593 107.29C156.081 105.792 155.731 103.841 155.363 101.661C154.993 99.4657 154.601 97.0137 154.012 94.4585L154.499 94.346L154.986 94.2336C155.584 96.8248 155.981 99.3114 156.349 101.495C156.72 103.693 157.059 105.56 157.539 106.967L157.066 107.129ZM154.499 94.346L154.004 94.4156C153.56 91.2562 152.258 86.7173 149.762 82.1746L150.2 81.9338L150.638 81.6931C153.194 86.3443 154.534 90.9996 154.994 94.2765L154.499 94.346Z" fill="white" fill-opacity="0.22"/>
</mask>
<g mask="url(#mask2_330_3178)">
<path d="M150.125 81.8C150.329 72.3559 149.258 57.0978 143.388 60.3651C141.456 61.6 137.111 64.5226 133.847 67.1554C132.13 66.5053 130.287 65.9924 128.31 65.646C124.974 65.1625 120.141 65.3572 115.004 67.0651C111.915 64.0517 107.345 60.4292 105.385 58.9504C99.4362 55.0053 97.3322 72.471 96.9918 81.6343C95.0737 84.7502 93.4057 88.4203 92.115 92.7333C91.3726 95.2142 90.613 100.111 87.7623 103.618C87.5728 104.478 88.1976 105.651 92.2146 103.466C92.5602 103.488 92.709 104.369 90.5386 107.716C91.5161 108.12 93.5596 110.103 96.5255 112.709C108.398 123.141 129.524 130.127 148.616 115.072C150.499 113.587 153.107 110.885 155.104 110.986C152.937 108.814 150.018 106.001 153.052 106.548C154.141 106.745 157.319 108.871 157.066 107.129C156.084 104.027 155.686 99.492 154.498 94.3455C154.041 91.0961 152.699 86.4414 150.125 81.8Z" fill="url(#paint21_linear_330_3178)"/>
<path d="M150.125 81.8L149.688 82.0425L149.622 81.9243L149.625 81.7892L150.125 81.8ZM143.388 60.3651L143.119 59.9438L143.132 59.9356L143.145 59.9282L143.388 60.3651ZM133.847 67.1554L134.16 67.5446L133.937 67.7245L133.669 67.623L133.847 67.1554ZM128.31 65.646L128.382 65.1512L128.39 65.1523L128.397 65.1535L128.31 65.646ZM115.004 67.0651L115.162 67.5396L114.873 67.6356L114.655 67.423L115.004 67.0651ZM105.385 58.9504L105.661 58.5337L105.674 58.5421L105.686 58.5512L105.385 58.9504ZM96.9918 81.6343L97.4914 81.6529L97.4866 81.7844L97.4176 81.8964L96.9918 81.6343ZM92.115 92.7333L91.636 92.5899L92.115 92.7333ZM87.7623 103.618L87.274 103.511L87.2995 103.395L87.3743 103.303L87.7623 103.618ZM92.2146 103.466L91.9757 103.027L92.1022 102.958L92.246 102.967L92.2146 103.466ZM90.5386 107.716L90.3475 108.178L89.792 107.948L90.1191 107.444L90.5386 107.716ZM96.5255 112.709L96.1954 113.085L96.5255 112.709ZM148.616 115.072L148.926 115.465L148.926 115.465L148.616 115.072ZM155.104 110.986L155.458 110.633L156.374 111.551L155.079 111.485L155.104 110.986ZM153.052 106.548L153.141 106.056L153.141 106.056L153.052 106.548ZM157.066 107.129L157.542 106.978L157.555 107.016L157.56 107.057L157.066 107.129ZM154.498 94.3455L154.011 94.4579L154.006 94.4366L154.003 94.415L154.498 94.3455ZM150.125 81.8L149.625 81.7892C149.727 77.0798 149.509 70.9498 148.545 66.4198C148.06 64.14 147.401 62.346 146.56 61.326C146.147 60.8256 145.717 60.5434 145.269 60.4502C144.825 60.3577 144.289 60.4358 143.631 60.802L143.388 60.3651L143.145 59.9282C143.955 59.4776 144.736 59.3177 145.473 59.4712C146.207 59.624 146.822 60.0715 147.331 60.6897C148.335 61.9067 149.032 63.9049 149.523 66.2117C150.511 70.855 150.727 77.0761 150.625 81.8107L150.125 81.8ZM143.388 60.3651L143.657 60.7864C141.733 62.0168 137.405 64.9282 134.16 67.5446L133.847 67.1554L133.533 66.7662C136.818 64.117 141.18 61.1831 143.119 59.9438L143.388 60.3651ZM133.847 67.1554L133.669 67.623C131.983 66.9841 130.17 66.4795 128.224 66.1385L128.31 65.646L128.397 65.1535C130.404 65.5053 132.278 66.0265 134.024 66.6878L133.847 67.1554ZM128.31 65.646L128.239 66.1409C124.98 65.6685 120.225 65.8562 115.162 67.5396L115.004 67.0651L114.846 66.5907C120.057 64.8582 124.969 64.6565 128.382 65.1512L128.31 65.646ZM115.004 67.0651L114.655 67.423C111.589 64.4317 107.039 60.8242 105.084 59.3496L105.385 58.9504L105.686 58.5512C107.652 60.0342 112.242 63.6717 115.353 66.7072L115.004 67.0651ZM105.385 58.9504L105.109 59.3671C104.443 58.9258 103.89 58.8201 103.423 58.908C102.946 58.9976 102.468 59.3052 101.993 59.8651C101.031 60.9998 100.222 63.0049 99.5689 65.5032C98.2703 70.4703 97.6611 77.0857 97.4914 81.6529L96.9918 81.6343L96.4921 81.6158C96.6628 77.0196 97.2758 70.3205 98.6015 65.2502C99.2604 62.7298 100.114 60.5355 101.23 59.2185C101.795 58.5526 102.46 58.0714 103.238 57.9252C104.025 57.7773 104.84 57.9887 105.661 58.5337L105.385 58.9504ZM96.9918 81.6343L97.4176 81.8964C95.5238 84.9729 93.873 88.6026 92.594 92.8766L92.115 92.7333L91.636 92.5899C92.9384 88.2379 94.6236 84.5275 96.566 81.3722L96.9918 81.6343ZM92.115 92.7333L92.594 92.8766C92.4123 93.4839 92.2299 94.2379 92.0071 95.1111C91.7862 95.9768 91.5294 96.9433 91.2049 97.945C90.5571 99.9449 89.6311 102.112 88.1503 103.934L87.7623 103.618L87.3743 103.303C88.7441 101.618 89.6233 99.5825 90.2536 97.6368C90.5681 96.6658 90.8187 95.7237 91.0381 94.8639C91.2556 94.0116 91.4465 93.2232 91.636 92.5899L92.115 92.7333ZM87.7623 103.618L88.2505 103.726C88.2184 103.872 88.2328 103.984 88.2636 104.048C88.2826 104.087 88.3276 104.157 88.5096 104.194C88.7144 104.235 89.0735 104.226 89.6556 104.053C90.2314 103.883 90.9901 103.563 91.9757 103.027L92.2146 103.466L92.4535 103.906C91.4306 104.462 90.6049 104.815 89.9396 105.012C89.2808 105.207 88.7422 105.261 88.3124 105.174C87.8597 105.083 87.533 104.835 87.3626 104.481C87.2041 104.152 87.2114 103.795 87.274 103.511L87.7623 103.618ZM92.2146 103.466L92.246 102.967C92.4 102.977 92.5575 103.038 92.6833 103.163C92.8037 103.283 92.8649 103.431 92.8933 103.567C92.9472 103.827 92.9028 104.139 92.7993 104.487C92.5876 105.198 92.0505 106.303 90.9581 107.988L90.5386 107.716L90.1191 107.444C91.1971 105.781 91.6708 104.773 91.8409 104.202C91.8825 104.062 91.9031 103.957 91.9116 103.882C91.9158 103.845 91.9167 103.817 91.9163 103.798C91.9159 103.779 91.9142 103.77 91.9142 103.771C91.9142 103.771 91.9166 103.782 91.9257 103.801C91.9351 103.82 91.9515 103.846 91.9784 103.873C92.0384 103.932 92.1155 103.961 92.1832 103.965L92.2146 103.466ZM90.5386 107.716L90.7297 107.254C91.0358 107.38 91.3888 107.613 91.7706 107.901C92.1598 108.195 92.6097 108.571 93.1143 109.009C94.1117 109.876 95.3911 111.047 96.8555 112.333L96.5255 112.709L96.1954 113.085C94.6939 111.765 93.4687 110.642 92.4585 109.764C91.9592 109.331 91.5296 108.972 91.168 108.699C90.7991 108.421 90.5301 108.253 90.3475 108.178L90.5386 107.716ZM96.5255 112.709L96.8555 112.333C108.617 122.667 129.468 129.534 148.307 114.68L148.616 115.072L148.926 115.465C129.58 130.719 108.18 123.615 96.1954 113.085L96.5255 112.709ZM148.616 115.072L148.307 114.68C148.768 114.316 149.273 113.878 149.819 113.413C150.36 112.951 150.936 112.468 151.519 112.034C152.1 111.6 152.702 111.203 153.299 110.921C153.893 110.64 154.516 110.455 155.13 110.486L155.104 110.986L155.079 111.485C154.694 111.466 154.242 111.581 153.727 111.825C153.214 112.067 152.672 112.42 152.117 112.835C151.562 113.249 151.008 113.714 150.468 114.174C149.933 114.629 149.407 115.086 148.926 115.465L148.616 115.072ZM155.104 110.986L154.75 111.339C153.687 110.273 152.37 108.985 151.715 108.03C151.549 107.788 151.406 107.54 151.324 107.303C151.246 107.078 151.189 106.762 151.348 106.468C151.516 106.157 151.831 106.036 152.111 105.997C152.394 105.958 152.74 105.984 153.141 106.056L153.052 106.548L152.963 107.04C152.605 106.976 152.379 106.97 152.249 106.988C152.116 107.006 152.179 107.033 152.228 106.943C152.267 106.869 152.225 106.848 152.269 106.975C152.309 107.09 152.395 107.253 152.54 107.464C153.128 108.322 154.354 109.526 155.458 110.633L155.104 110.986ZM153.052 106.548L153.141 106.056C153.485 106.118 153.948 106.318 154.378 106.51C154.838 106.716 155.307 106.935 155.738 107.098C155.952 107.178 156.142 107.239 156.303 107.274C156.47 107.312 156.572 107.314 156.623 107.306C156.66 107.301 156.614 107.301 156.582 107.355C156.562 107.388 156.595 107.365 156.571 107.201L157.066 107.129L157.56 107.057C157.6 107.328 157.589 107.62 157.44 107.869C157.278 108.139 157.016 108.258 156.774 108.295C156.546 108.33 156.304 108.299 156.085 108.251C155.86 108.2 155.622 108.122 155.386 108.033C154.918 107.857 154.405 107.617 153.97 107.423C153.506 107.216 153.163 107.076 152.963 107.04L153.052 106.548ZM157.066 107.129L156.589 107.279C156.086 105.69 155.736 103.747 155.366 101.588C154.995 99.4188 154.601 97.0142 154.011 94.4579L154.498 94.3455L154.985 94.233C155.583 96.8233 155.982 99.2596 156.352 101.42C156.724 103.591 157.064 105.465 157.542 106.978L157.066 107.129ZM154.498 94.3455L154.003 94.415C153.554 91.2249 152.231 86.629 149.688 82.0425L150.125 81.8L150.562 81.5575C153.167 86.2538 154.528 90.9673 154.993 94.2759L154.498 94.3455Z" fill="white" fill-opacity="0.22"/>
<path d="M98.3558 99.5563C101.536 99.0676 95.0079 96.6879 91.2946 95.6218L90.2082 98.7224C92.3796 99.2522 97.1701 99.7385 98.3558 99.5563Z" fill="url(#paint22_linear_330_3178)"/>
<path d="M96.5931 95.6222C99.9688 95.8713 96.3161 90.0947 93.6162 88.0155C92.8541 89.979 92.1905 91.167 91.7445 94.2857C92.9272 94.7623 95.5004 95.5499 96.5931 95.6222Z" fill="url(#paint23_linear_330_3178)"/>
<path d="M148.456 103.035C145.341 102.227 152.076 100.519 155.879 99.8336L156.646 103.028C154.432 103.336 149.617 103.336 148.456 103.035Z" fill="url(#paint24_linear_330_3178)"/>
<path d="M150.607 99.2989C147.223 99.2057 151.441 93.8277 154.337 92.0318C154.897 94.0623 155.437 95.3113 155.566 98.459C154.341 98.8137 151.701 99.3374 150.607 99.2989Z" fill="url(#paint25_linear_330_3178)"/>
<path d="M125.002 84.4731C127.547 84.602 131.197 70.2229 131.405 66.1117C125.961 64.3051 119.149 65.4911 117.58 66.1179C118.522 72.1327 122.457 84.3442 125.002 84.4731Z" fill="url(#paint26_linear_330_3178)"/>
<path d="M144.373 66.0484C145.004 66.152 145.703 73.4195 145.974 77.0403C143.743 73.0838 140.026 71.0305 137.857 69.6695C142.58 64.7786 144.3 65.3508 144.373 66.0484Z" fill="url(#paint27_linear_330_3178)"/>
<path d="M103.538 64.2619C102.901 64.335 101.995 71.8254 101.621 75.5615C103.971 71.5839 107.761 69.6584 109.976 68.366C105.373 63.0437 103.63 63.5432 103.538 64.2619Z" fill="url(#paint28_linear_330_3178)"/>
<g filter="url(#filter6_i_330_3178)">
<path d="M118.471 93.1299C117.889 98.0292 113.522 101.436 109.012 100.901C104.503 100.365 100.937 96.7729 102.392 91.221C103.588 86.6605 107.264 82.9057 111.851 83.4502C116.236 83.9709 119.052 88.2307 118.471 93.1299Z" fill="white"/>
</g>
<path d="M111.791 83.9467C115.837 84.4271 118.532 88.3764 117.975 93.0713C117.424 97.7082 113.295 100.905 109.071 100.404C106.927 100.149 105.04 99.1721 103.862 97.6376C102.693 96.1145 102.183 93.9912 102.876 91.3476C104.038 86.9173 107.552 83.4436 111.791 83.9467Z" stroke="white" stroke-opacity="0.22"/>
<mask id="mask3_330_3178" style="mask-type:alpha" maskUnits="userSpaceOnUse" x="102" y="83" width="17" height="18">
<path d="M118.471 93.1299C117.889 98.0292 113.522 101.436 109.013 100.901C104.503 100.365 100.937 96.7729 102.392 91.221C103.588 86.6605 107.264 82.9057 111.851 83.4502C116.236 83.9709 119.053 88.2307 118.471 93.1299Z" fill="white"/>
<path d="M111.792 83.9467C115.838 84.4271 118.532 88.3764 117.975 93.0713C117.424 97.7082 113.295 100.905 109.072 100.404C106.927 100.149 105.04 99.1721 103.862 97.6376C102.693 96.1145 102.183 93.9912 102.876 91.3476C104.038 86.9173 107.553 83.4436 111.792 83.9467Z" stroke="white" stroke-opacity="0.22"/>
</mask>
<g mask="url(#mask3_330_3178)">
<g filter="url(#filter7_i_330_3178)">
<path d="M119.282 94.1388C119.136 99.0703 115.087 102.85 110.548 102.716C106.008 102.581 102.138 99.3183 103.097 93.6595C103.885 89.0111 107.215 84.9458 111.831 85.0826C116.245 85.2133 119.428 89.2073 119.282 94.1388Z" fill="url(#paint29_linear_330_3178)"/>
</g>
<mask id="mask4_330_3178" style="mask-type:alpha" maskUnits="userSpaceOnUse" x="102" y="85" width="18" height="18">
<path d="M119.139 94.7446C118.633 99.6522 114.318 103.125 109.801 102.659C105.284 102.192 101.663 98.655 103.034 93.0815C104.159 88.5033 107.778 84.6927 112.372 85.1671C116.765 85.6207 119.646 89.837 119.139 94.7446Z" fill="#FFF3E7"/>
</mask>
<g mask="url(#mask4_330_3178)">
<ellipse cx="110.847" cy="94.401" rx="5.43282" ry="6.62424" transform="rotate(7.09777 110.847 94.401)" fill="url(#paint30_linear_330_3178)"/>
<g filter="url(#filter8_f_330_3178)">
<ellipse cx="0.333594" cy="0.333595" rx="0.333594" ry="0.333595" transform="matrix(-0.992337 -0.123563 -0.123563 0.992337 112.148 91.6265)" fill="white"/>
</g>
<g filter="url(#filter9_f_330_3178)">
<mask id="path-45-inside-1_330_3178" fill="white">
<ellipse cx="110.444" cy="90.4531" rx="0.710598" ry="0.710598" transform="rotate(7.09777 110.444 90.4531)"/>
</mask>
<ellipse cx="110.444" cy="90.4531" rx="0.710598" ry="0.710598" transform="rotate(7.09777 110.444 90.4531)" fill="white"/>
<path d="M111.149 90.5409L110.157 90.4174C110.177 90.2587 110.321 90.1462 110.48 90.1659L110.356 91.1583L110.233 92.1506C111.17 92.2673 112.025 91.602 112.141 90.6645L111.149 90.5409ZM110.356 91.1583L110.48 90.1659C110.638 90.1857 110.751 90.3303 110.731 90.4889L109.739 90.3653L108.747 90.2417C108.63 91.1792 109.295 92.0339 110.233 92.1506L110.356 91.1583ZM109.739 90.3653L110.731 90.4889C110.711 90.6475 110.567 90.76 110.408 90.7403L110.532 89.748L110.655 88.7556C109.718 88.6389 108.863 89.3042 108.747 90.2417L109.739 90.3653ZM110.532 89.748L110.408 90.7403C110.25 90.7205 110.137 90.576 110.157 90.4174L111.149 90.5409L112.141 90.6645C112.258 89.727 111.593 88.8724 110.655 88.7556L110.532 89.748Z" fill="white" fill-opacity="0.22" mask="url(#path-45-inside-1_330_3178)"/>
</g>
</g>
</g>
<g filter="url(#filter10_i_330_3178)">
<path d="M130.515 93.7989C130.584 98.7703 134.42 102.621 138.785 102.533C143.15 102.445 146.917 99.1965 146.078 93.4837C145.388 88.791 142.247 84.6596 137.807 84.7495C133.562 84.8355 130.446 88.8275 130.515 93.7989Z" fill="white"/>
</g>
<path d="M137.814 85.2495C133.931 85.3281 130.949 88.9999 131.015 93.7891C131.081 98.5189 134.723 102.115 138.778 102.033C140.842 101.991 142.736 101.204 144.012 99.7848C145.281 98.3736 145.984 96.2888 145.583 93.5595C144.91 88.9803 141.887 85.1671 137.814 85.2495Z" stroke="white" stroke-opacity="0.22"/>
<mask id="mask5_330_3178" style="mask-type:alpha" maskUnits="userSpaceOnUse" x="130" y="84" width="17" height="19">
<path d="M130.515 93.7989C130.584 98.7703 134.42 102.621 138.785 102.533C143.15 102.445 146.917 99.1965 146.078 93.4837C145.388 88.791 142.247 84.6596 137.807 84.7495C133.562 84.8355 130.446 88.8275 130.515 93.7989Z" fill="white"/>
<path d="M137.814 85.2495C133.931 85.3281 130.949 88.9999 131.015 93.7891C131.081 98.5189 134.723 102.115 138.778 102.033C140.842 101.991 142.736 101.204 144.012 99.7848C145.281 98.3736 145.984 96.2888 145.583 93.5595C144.91 88.9803 141.887 85.1671 137.814 85.2495Z" stroke="white" stroke-opacity="0.22"/>
</mask>
<g mask="url(#mask5_330_3178)">
<g filter="url(#filter11_i_330_3178)">
<path d="M129.168 94.5306C128.817 99.4909 132.313 103.684 136.666 104.001C141.019 104.318 145.044 101.43 144.69 95.6596C144.4 90.9194 141.62 86.5111 137.192 86.189C132.959 85.8811 129.519 89.5702 129.168 94.5306Z" fill="url(#paint31_linear_330_3178)"/>
</g>
<mask id="mask6_330_3178" style="mask-type:alpha" maskUnits="userSpaceOnUse" x="129" y="86" width="16" height="19">
<path d="M129.168 94.5306C128.817 99.4909 132.313 103.684 136.666 104.001C141.019 104.318 145.044 101.43 144.69 95.6596C144.4 90.9194 141.62 86.5111 137.192 86.189C132.959 85.8811 129.519 89.5702 129.168 94.5306Z" fill="url(#paint32_linear_330_3178)"/>
</mask>
<g mask="url(#mask6_330_3178)">
<ellipse cx="5.46832" cy="6.56199" rx="5.46832" ry="6.56199" transform="matrix(-0.999084 0.0427935 0.0427935 0.999084 142.369 88.9214)" fill="url(#paint33_linear_330_3178)"/>
<g filter="url(#filter12_f_330_3178)">
<mask id="path-54-inside-2_330_3178" fill="white">
<ellipse cx="0.709022" cy="0.743529" rx="0.709022" ry="0.743529" transform="matrix(-0.999084 0.0427935 0.0427935 0.999084 136.741 90.8628)"/>
</mask>
<ellipse cx="0.709022" cy="0.743529" rx="0.709022" ry="0.743529" transform="matrix(-0.999084 0.0427935 0.0427935 0.999084 136.741 90.8628)" fill="white"/>
<path d="M135.357 91.6663L136.356 91.6235C136.351 91.5273 136.259 91.371 136.054 91.3797L136.097 92.3788L136.14 93.3779C135.152 93.4202 134.397 92.6259 134.357 91.7091L135.357 91.6663ZM136.097 92.3788L136.054 91.3797C135.849 91.3885 135.77 91.5522 135.774 91.6484L136.773 91.6056L137.772 91.5628C137.812 92.4796 137.127 93.3356 136.14 93.3779L136.097 92.3788ZM136.773 91.6056L135.774 91.6484C135.778 91.7447 135.871 91.901 136.076 91.8922L136.033 90.8931L135.99 89.8941C136.978 89.8518 137.733 90.6461 137.772 91.5628L136.773 91.6056ZM136.033 90.8931L136.076 91.8922C136.281 91.8834 136.36 91.7198 136.356 91.6235L135.357 91.6663L134.357 91.7091C134.318 90.7923 135.003 89.9363 135.99 89.8941L136.033 90.8931Z" fill="white" fill-opacity="0.22" mask="url(#path-54-inside-2_330_3178)"/>
</g>
<g filter="url(#filter13_f_330_3178)">
<ellipse cx="0.332854" cy="0.332855" rx="0.332854" ry="0.332855" transform="matrix(-0.999084 0.0427935 0.0427935 0.999084 137.75 92.6426)" fill="white"/>
</g>
</g>
</g>
<path d="M124.165 104.333L124.114 109.35M124.114 109.35C124.114 109.35 122.022 112.305 119.391 112.014M124.114 109.35C124.114 109.35 126.218 113.14 128.474 112.465" stroke="url(#paint34_linear_330_3178)"/>
<path d="M121.663 105.271C124.278 106.825 126.354 105.974 127.065 105.355C128.397 104.423 127.877 103.657 127.451 103.391C125.292 102.2 122.993 102.509 122.114 102.812C119.594 103.587 120.764 104.774 121.663 105.271Z" fill="url(#paint35_linear_330_3178)" stroke="white" stroke-opacity="0.22"/>
<g filter="url(#filter14_f_330_3178)">
<path d="M124.236 103.526C125.183 103.186 126.288 103.6 126.659 103.912C127.089 104.385 126.293 104.359 125.841 104.287C123.983 103.888 124.01 103.616 124.236 103.526Z" fill="white"/>
<path d="M124.236 103.526C125.183 103.186 126.288 103.6 126.659 103.912C127.089 104.385 126.293 104.359 125.841 104.287C123.983 103.888 124.01 103.616 124.236 103.526Z" stroke="white" stroke-opacity="0.22"/>
</g>
<path d="M112.587 78.4704C113.15 79.0146 111.801 80.0597 109.995 80.7456C106.944 81.6063 106.688 81.3648 106.547 80.7273C106.417 79.7416 107.348 79.215 109.153 78.5291C110.959 77.8431 112.193 78.0903 112.587 78.4704Z" fill="url(#paint36_linear_330_3178)"/>
<path d="M136.584 79.578C136.004 80.104 137.319 81.1915 139.101 81.9346C142.124 82.892 142.522 82.5515 142.549 82.0261C142.58 81.416 141.797 80.4891 140.014 79.746C138.231 79.0029 136.989 79.2107 136.584 79.578Z" fill="url(#paint37_linear_330_3178)"/>
<g filter="url(#filter15_f_330_3178)">
<path d="M97.9168 104.115C97.8301 104.914 99.6382 105.765 101.955 106.017C104.272 106.268 106.221 105.824 106.308 105.026C106.394 104.227 104.586 103.376 102.269 103.124C99.9521 102.873 98.0035 103.316 97.9168 104.115Z" fill="#9F5E2D"/>
</g>
<g filter="url(#filter16_f_330_3178)">
<path d="M147.345 107.406C147.351 108.209 145.466 108.874 143.135 108.89C140.805 108.906 138.911 108.268 138.905 107.464C138.9 106.661 140.785 105.997 143.115 105.981C145.446 105.964 147.34 106.603 147.345 107.406Z" fill="#9F5E2D"/>
</g>
</g>
<path d="M144.794 145.511C140.54 144.153 136.254 143.282 134.287 144.002C132.916 143.978 137.038 140.599 137.979 139.875C138.921 139.15 140.079 137.884 142.288 136.87C144.496 135.856 153.542 137.78 157.167 141.178C157.746 141.72 157.71 142.698 157.167 143.495C156.624 144.291 154.42 149.758 154.198 150.011C153.976 150.265 153.148 150.156 151.375 148.961C150.196 148.168 147.921 146.509 144.794 145.511Z" fill="url(#paint38_linear_330_3178)"/>
<path d="M89.3979 141.105L90.0133 140.417L90.6649 142.083" stroke="black" stroke-width="0.5"/>
<path d="M89.5781 142.445L90.1934 141.757L90.8451 143.423" stroke="black" stroke-width="0.5"/>
<path d="M90.0845 143.097L90.8932 142.409L91.7498 144.074" stroke="black" stroke-width="0.5"/>
<path d="M89.8667 143.641L90.4645 143.133L91.0976 144.364" stroke="black" stroke-width="0.5"/>
<path d="M85.8837 141.612L84.4718 141.142L83.8926 141.974" stroke="black" stroke-width="0.5"/>
<path d="M85.9659 142.41L84.6656 142.072L84.2056 142.884" stroke="black" stroke-width="0.5"/>
<path d="M86.6352 144.052L84.602 144.591L84.2386 145.711" stroke="black" stroke-width="0.5"/>
<path d="M86.243 143.238L83.8736 142.624L83.3584 144.653" stroke="black" stroke-width="0.5"/>
<path d="M86.5947 139.986C87.707 139.485 89.1363 140.249 89.7871 141.694C90.264 142.752 90.188 143.88 89.6768 144.606C89.8155 144.744 89.9367 144.916 90.0264 145.115C90.3395 145.809 90.1601 146.569 89.625 146.81C89.09 147.051 88.402 146.682 88.0889 145.988C87.9925 145.773 87.9424 145.553 87.9356 145.344C87.0792 145.215 86.2217 144.535 85.7588 143.508C85.1082 142.064 85.4826 140.487 86.5947 139.986Z" fill="url(#paint39_linear_330_3178)"/>
<defs>
<filter id="filter0_d_330_3178" x="56.1128" y="121.965" width="71.5947" height="61.9585" filterUnits="userSpaceOnUse" color-interpolation-filters="sRGB">
<feFlood flood-opacity="0" result="BackgroundImageFix"/>
<feColorMatrix in="SourceAlpha" type="matrix" values="0 0 0 0 0 0 0 0 0 0 0 0 0 0 0 0 0 0 127 0" result="hardAlpha"/>
<feOffset dx="4" dy="4"/>
<feGaussianBlur stdDeviation="5"/>
<feComposite in2="hardAlpha" operator="out"/>
<feColorMatrix type="matrix" values="0 0 0 0 0 0 0 0 0 0 0 0 0 0 0 0 0 0 0.5 0"/>
<feBlend mode="normal" in2="BackgroundImageFix" result="effect1_dropShadow_330_3178"/>
<feBlend mode="normal" in="SourceGraphic" in2="effect1_dropShadow_330_3178" result="shape"/>
</filter>
<filter id="filter1_d_330_3178" x="108.147" y="137.049" width="40.6162" height="41.585" filterUnits="userSpaceOnUse" color-interpolation-filters="sRGB">
<feFlood flood-opacity="0" result="BackgroundImageFix"/>
<feColorMatrix in="SourceAlpha" type="matrix" values="0 0 0 0 0 0 0 0 0 0 0 0 0 0 0 0 0 0 127 0" result="hardAlpha"/>
<feOffset dy="4"/>
<feGaussianBlur stdDeviation="5"/>
<feComposite in2="hardAlpha" operator="out"/>
<feColorMatrix type="matrix" values="0 0 0 0 0 0 0 0 0 0 0 0 0 0 0 0 0 0 0.25 0"/>
<feBlend mode="normal" in2="BackgroundImageFix" result="effect1_dropShadow_330_3178"/>
<feBlend mode="normal" in="SourceGraphic" in2="effect1_dropShadow_330_3178" result="shape"/>
</filter>
<filter id="filter2_f_330_3178" x="9.66357" y="119.445" width="115.764" height="82.3853" filterUnits="userSpaceOnUse" color-interpolation-filters="sRGB">
<feFlood flood-opacity="0" result="BackgroundImageFix"/>
<feBlend mode="normal" in="SourceGraphic" in2="BackgroundImageFix" result="shape"/>
<feGaussianBlur stdDeviation="7.5" result="effect1_foregroundBlur_330_3178"/>
</filter>
<filter id="filter3_f_330_3178" x="95.3562" y="134.631" width="80.1052" height="61.1533" filterUnits="userSpaceOnUse" color-interpolation-filters="sRGB">
<feFlood flood-opacity="0" result="BackgroundImageFix"/>
<feBlend mode="normal" in="SourceGraphic" in2="BackgroundImageFix" result="shape"/>
<feGaussianBlur stdDeviation="7.5" result="effect1_foregroundBlur_330_3178"/>
</filter>
<filter id="filter4_d_330_3178" x="108.916" y="101.877" width="70.6885" height="82.0264" filterUnits="userSpaceOnUse" color-interpolation-filters="sRGB">
<feFlood flood-opacity="0" result="BackgroundImageFix"/>
<feColorMatrix in="SourceAlpha" type="matrix" values="0 0 0 0 0 0 0 0 0 0 0 0 0 0 0 0 0 0 127 0" result="hardAlpha"/>
<feOffset dy="4"/>
<feGaussianBlur stdDeviation="10"/>
<feComposite in2="hardAlpha" operator="out"/>
<feColorMatrix type="matrix" values="0 0 0 0 0 0 0 0 0 0 0 0 0 0 0 0 0 0 0.25 0"/>
<feBlend mode="normal" in2="BackgroundImageFix" result="effect1_dropShadow_330_3178"/>
<feBlend mode="normal" in="SourceGraphic" in2="effect1_dropShadow_330_3178" result="shape"/>
</filter>
<filter id="filter5_f_330_3178" x="31.3567" y="0.548828" width="183.905" height="169.294" filterUnits="userSpaceOnUse" color-interpolation-filters="sRGB">
<feFlood flood-opacity="0" result="BackgroundImageFix"/>
<feBlend mode="normal" in="SourceGraphic" in2="BackgroundImageFix" result="shape"/>
<feGaussianBlur stdDeviation="20" result="effect1_foregroundBlur_330_3178"/>
</filter>
<filter id="filter6_i_330_3178" x="102.062" y="83.3975" width="16.4844" height="21.5586" filterUnits="userSpaceOnUse" color-interpolation-filters="sRGB">
<feFlood flood-opacity="0" result="BackgroundImageFix"/>
<feBlend mode="normal" in="SourceGraphic" in2="BackgroundImageFix" result="shape"/>
<feColorMatrix in="SourceAlpha" type="matrix" values="0 0 0 0 0 0 0 0 0 0 0 0 0 0 0 0 0 0 127 0" result="hardAlpha"/>
<feOffset dy="4"/>
<feGaussianBlur stdDeviation="5"/>
<feComposite in2="hardAlpha" operator="arithmetic" k2="-1" k3="1"/>
<feColorMatrix type="matrix" values="0 0 0 0 0 0 0 0 0 0.354167 0 0 0 0 0.817308 0 0 0 0.25 0"/>
<feBlend mode="normal" in2="shape" result="effect1_innerShadow_330_3178"/>
</filter>
<filter id="filter7_i_330_3178" x="102.95" y="85.0791" width="16.3362" height="21.6401" filterUnits="userSpaceOnUse" color-interpolation-filters="sRGB">
<feFlood flood-opacity="0" result="BackgroundImageFix"/>
<feBlend mode="normal" in="SourceGraphic" in2="BackgroundImageFix" result="shape"/>
<feColorMatrix in="SourceAlpha" type="matrix" values="0 0 0 0 0 0 0 0 0 0 0 0 0 0 0 0 0 0 127 0" result="hardAlpha"/>
<feOffset dy="4"/>
<feGaussianBlur stdDeviation="5"/>
<feComposite in2="hardAlpha" operator="arithmetic" k2="-1" k3="1"/>
<feColorMatrix type="matrix" values="0 0 0 0 0.184314 0 0 0 0 0.341176 0 0 0 0 0.603922 0 0 0 0.3 0"/>
<feBlend mode="normal" in2="shape" result="effect1_innerShadow_330_3178"/>
</filter>
<filter id="filter8_f_330_3178" x="107.442" y="87.5825" width="8.66724" height="8.66748" filterUnits="userSpaceOnUse" color-interpolation-filters="sRGB">
<feFlood flood-opacity="0" result="BackgroundImageFix"/>
<feBlend mode="normal" in="SourceGraphic" in2="BackgroundImageFix" result="shape"/>
<feGaussianBlur stdDeviation="2" result="effect1_foregroundBlur_330_3178"/>
</filter>
<filter id="filter9_f_330_3178" x="105.733" y="85.7427" width="9.42139" height="9.4209" filterUnits="userSpaceOnUse" color-interpolation-filters="sRGB">
<feFlood flood-opacity="0" result="BackgroundImageFix"/>
<feBlend mode="normal" in="SourceGraphic" in2="BackgroundImageFix" result="shape"/>
<feGaussianBlur stdDeviation="2" result="effect1_foregroundBlur_330_3178"/>
</filter>
<filter id="filter10_i_330_3178" x="130.514" y="84.748" width="15.6821" height="21.7866" filterUnits="userSpaceOnUse" color-interpolation-filters="sRGB">
<feFlood flood-opacity="0" result="BackgroundImageFix"/>
<feBlend mode="normal" in="SourceGraphic" in2="BackgroundImageFix" result="shape"/>
<feColorMatrix in="SourceAlpha" type="matrix" values="0 0 0 0 0 0 0 0 0 0 0 0 0 0 0 0 0 0 127 0" result="hardAlpha"/>
<feOffset dy="4"/>
<feGaussianBlur stdDeviation="5"/>
<feComposite in2="hardAlpha" operator="arithmetic" k2="-1" k3="1"/>
<feColorMatrix type="matrix" values="0 0 0 0 0 0 0 0 0 0.354167 0 0 0 0 0.817308 0 0 0 0.25 0"/>
<feBlend mode="normal" in2="shape" result="effect1_innerShadow_330_3178"/>
</filter>
<filter id="filter11_i_330_3178" x="129.144" y="86.1709" width="15.5679" height="21.8535" filterUnits="userSpaceOnUse" color-interpolation-filters="sRGB">
<feFlood flood-opacity="0" result="BackgroundImageFix"/>
<feBlend mode="normal" in="SourceGraphic" in2="BackgroundImageFix" result="shape"/>
<feColorMatrix in="SourceAlpha" type="matrix" values="0 0 0 0 0 0 0 0 0 0 0 0 0 0 0 0 0 0 127 0" result="hardAlpha"/>
<feOffset dy="4"/>
<feGaussianBlur stdDeviation="5"/>
<feComposite in2="hardAlpha" operator="arithmetic" k2="-1" k3="1"/>
<feColorMatrix type="matrix" values="0 0 0 0 0.183769 0 0 0 0 0.341658 0 0 0 0 0.604808 0 0 0 0.3 0"/>
<feBlend mode="normal" in2="shape" result="effect1_innerShadow_330_3178"/>
</filter>
<filter id="filter12_f_330_3178" x="131.356" y="86.8926" width="9.41821" height="9.48682" filterUnits="userSpaceOnUse" color-interpolation-filters="sRGB">
<feFlood flood-opacity="0" result="BackgroundImageFix"/>
<feBlend mode="normal" in="SourceGraphic" in2="BackgroundImageFix" result="shape"/>
<feGaussianBlur stdDeviation="2" result="effect1_foregroundBlur_330_3178"/>
</filter>
<filter id="filter13_f_330_3178" x="133.099" y="88.6567" width="8.66577" height="8.66553" filterUnits="userSpaceOnUse" color-interpolation-filters="sRGB">
<feFlood flood-opacity="0" result="BackgroundImageFix"/>
<feBlend mode="normal" in="SourceGraphic" in2="BackgroundImageFix" result="shape"/>
<feGaussianBlur stdDeviation="2" result="effect1_foregroundBlur_330_3178"/>
</filter>
<filter id="filter14_f_330_3178" x="113.629" y="92.8989" width="23.6531" height="21.9282" filterUnits="userSpaceOnUse" color-interpolation-filters="sRGB">
<feFlood flood-opacity="0" result="BackgroundImageFix"/>
<feBlend mode="normal" in="SourceGraphic" in2="BackgroundImageFix" result="shape"/>
<feGaussianBlur stdDeviation="5" result="effect1_foregroundBlur_330_3178"/>
</filter>
<filter id="filter15_f_330_3178" x="57.9138" y="63.0537" width="88.3967" height="83.0332" filterUnits="userSpaceOnUse" color-interpolation-filters="sRGB">
<feFlood flood-opacity="0" result="BackgroundImageFix"/>
<feBlend mode="normal" in="SourceGraphic" in2="BackgroundImageFix" result="shape"/>
<feGaussianBlur stdDeviation="20" result="effect1_foregroundBlur_330_3178"/>
</filter>
<filter id="filter16_f_330_3178" x="98.9053" y="65.9805" width="88.4399" height="82.9097" filterUnits="userSpaceOnUse" color-interpolation-filters="sRGB">
<feFlood flood-opacity="0" result="BackgroundImageFix"/>
<feBlend mode="normal" in="SourceGraphic" in2="BackgroundImageFix" result="shape"/>
<feGaussianBlur stdDeviation="20" result="effect1_foregroundBlur_330_3178"/>
</filter>
<linearGradient id="paint0_linear_330_3178" x1="113.575" y1="129.159" x2="73.354" y2="210.977" gradientUnits="userSpaceOnUse">
<stop stop-color="#C1C1C1"/>
<stop offset="0.842365" stop-color="#AAAAAA"/>
<stop offset="1" stop-color="#666666"/>
</linearGradient>
<linearGradient id="paint1_linear_330_3178" x1="50.4548" y1="184.693" x2="57.9937" y2="199.796" gradientUnits="userSpaceOnUse">
<stop stop-color="#B3B3B3"/>
<stop offset="1" stop-color="white"/>
</linearGradient>
<linearGradient id="paint2_linear_330_3178" x1="85.5962" y1="198.813" x2="94.8401" y2="214.788" gradientUnits="userSpaceOnUse">
<stop stop-color="#B3B3B3"/>
<stop offset="1" stop-color="white"/>
</linearGradient>
<linearGradient id="paint3_linear_330_3178" x1="183.236" y1="158.628" x2="155.359" y2="180.53" gradientUnits="userSpaceOnUse">
<stop stop-color="#A4A4A4"/>
<stop offset="1" stop-color="#6D6B6B"/>
</linearGradient>
<linearGradient id="paint4_linear_330_3178" x1="81.2657" y1="130.911" x2="90.4974" y2="127.798" gradientUnits="userSpaceOnUse">
<stop stop-color="#666666"/>
<stop offset="1" stop-color="#9F9F9F"/>
</linearGradient>
<linearGradient id="paint5_linear_330_3178" x1="30.7438" y1="160.257" x2="37.9119" y2="145.233" gradientUnits="userSpaceOnUse">
<stop stop-color="#BC7827"/>
<stop offset="1" stop-color="#724816"/>
</linearGradient>
<linearGradient id="paint6_linear_330_3178" x1="115.567" y1="140.237" x2="115.567" y2="175.064" gradientUnits="userSpaceOnUse">
<stop stop-color="#DE9C4E"/>
<stop offset="1" stop-color="#78542A"/>
</linearGradient>
<linearGradient id="paint7_linear_330_3178" x1="61.6247" y1="135.531" x2="61.6066" y2="185.599" gradientUnits="userSpaceOnUse">
<stop stop-color="#C98739"/>
<stop offset="0.485997" stop-color="#63421C"/>
</linearGradient>
<linearGradient id="paint8_linear_330_3178" x1="86.0809" y1="134.496" x2="99.1505" y2="163.658" gradientUnits="userSpaceOnUse">
<stop stop-color="#944A3C"/>
<stop offset="1" stop-color="#371A15"/>
</linearGradient>
<linearGradient id="paint9_linear_330_3178" x1="129.833" y1="149.947" x2="123.362" y2="151.553" gradientUnits="userSpaceOnUse">
<stop stop-color="#9D4B3C"/>
<stop offset="1" stop-color="#371A15"/>
</linearGradient>
<linearGradient id="paint10_linear_330_3178" x1="75.8884" y1="167.353" x2="75.91" y2="213.729" gradientUnits="userSpaceOnUse">
<stop stop-color="#F7BD79"/>
<stop offset="1" stop-color="#D1862F"/>
</linearGradient>
<linearGradient id="paint11_linear_330_3178" x1="75.8884" y1="167.353" x2="75.91" y2="213.729" gradientUnits="userSpaceOnUse">
<stop stop-color="#F7BD79"/>
<stop offset="1" stop-color="#D1862F"/>
</linearGradient>
<linearGradient id="paint12_linear_330_3178" x1="129.903" y1="167.824" x2="129.873" y2="213.729" gradientUnits="userSpaceOnUse">
<stop stop-color="#E09844"/>
<stop offset="1" stop-color="#935915"/>
</linearGradient>
<linearGradient id="paint13_linear_330_3178" x1="129.903" y1="167.824" x2="129.873" y2="213.729" gradientUnits="userSpaceOnUse">
<stop stop-color="#E09844"/>
<stop offset="1" stop-color="#935915"/>
</linearGradient>
<linearGradient id="paint14_linear_330_3178" x1="132.328" y1="160.221" x2="146.592" y2="166.882" gradientUnits="userSpaceOnUse">
<stop stop-color="#F3BD7D"/>
<stop offset="1" stop-color="#F2DDC5"/>
</linearGradient>
<linearGradient id="paint15_linear_330_3178" x1="70.1686" y1="143.966" x2="62.1678" y2="166.411" gradientUnits="userSpaceOnUse">
<stop stop-color="#EBC08E"/>
<stop offset="1" stop-color="#FFF0DF"/>
</linearGradient>
<linearGradient id="paint16_linear_330_3178" x1="158.684" y1="141.938" x2="141.379" y2="134.698" gradientUnits="userSpaceOnUse">
<stop stop-color="#6C6C6C"/>
<stop offset="1" stop-color="#A8A8A8"/>
</linearGradient>
<linearGradient id="paint17_linear_330_3178" x1="66.6846" y1="140.918" x2="66.6846" y2="124.652" gradientUnits="userSpaceOnUse">
<stop stop-color="#656565"/>
<stop offset="1" stop-color="#B4AEA4"/>
</linearGradient>
<linearGradient id="paint18_linear_330_3178" x1="63.4812" y1="101.693" x2="167.515" y2="72.8878" gradientUnits="userSpaceOnUse">
<stop stop-color="#D9D9D9"/>
<stop offset="1" stop-color="#737373"/>
</linearGradient>
<linearGradient id="paint19_linear_330_3178" x1="63.4812" y1="101.693" x2="167.515" y2="72.8878" gradientUnits="userSpaceOnUse">
<stop stop-color="#D9D9D9"/>
<stop offset="1" stop-color="#737373"/>
</linearGradient>
<linearGradient id="paint20_linear_330_3178" x1="123.158" y1="54.7382" x2="127.548" y2="107.947" gradientUnits="userSpaceOnUse">
<stop offset="0.00674478" stop-color="#353472"/>
<stop offset="1" stop-color="#161630"/>
</linearGradient>
<linearGradient id="paint21_linear_330_3178" x1="128.23" y1="58.7284" x2="125.281" y2="125.468" gradientUnits="userSpaceOnUse">
<stop stop-color="#F4A258"/>
<stop offset="1" stop-color="#FED8B5"/>
</linearGradient>
<linearGradient id="paint22_linear_330_3178" x1="94.3632" y1="95.3282" x2="94.8006" y2="99.9" gradientUnits="userSpaceOnUse">
<stop stop-color="#F79245"/>
<stop offset="0.995192" stop-color="#9B5B2B"/>
</linearGradient>
<linearGradient id="paint23_linear_330_3178" x1="93.9156" y1="87.9717" x2="95.0741" y2="95.9043" gradientUnits="userSpaceOnUse">
<stop stop-color="#F79245"/>
<stop offset="0.995192" stop-color="#9B5B2B"/>
</linearGradient>
<linearGradient id="paint24_linear_330_3178" x1="152.855" y1="99.2315" x2="151.958" y2="103.736" gradientUnits="userSpaceOnUse">
<stop stop-color="#E3863F"/>
<stop offset="0.995192" stop-color="#9D5C2C"/>
</linearGradient>
<linearGradient id="paint25_linear_330_3178" x1="154.044" y1="91.9581" x2="152.09" y2="99.733" gradientUnits="userSpaceOnUse">
<stop stop-color="#F79245"/>
<stop offset="0.995192" stop-color="#9B5B2B"/>
</linearGradient>
<linearGradient id="paint26_linear_330_3178" x1="118.674" y1="54.8179" x2="127.034" y2="80.1261" gradientUnits="userSpaceOnUse">
<stop stop-color="#F28F44"/>
<stop offset="1" stop-color="#9F5E2D"/>
</linearGradient>
<linearGradient id="paint27_linear_330_3178" x1="140.842" y1="73.7387" x2="144.502" y2="65.834" gradientUnits="userSpaceOnUse">
<stop offset="0.14421" stop-color="#FFB27E" stop-opacity="0"/>
<stop offset="1" stop-color="#9F5E2D"/>
</linearGradient>
<linearGradient id="paint28_linear_330_3178" x1="109.207" y1="74.7387" x2="103.922" y2="64.7352" gradientUnits="userSpaceOnUse">
<stop offset="0.432698" stop-color="#F6AE6D" stop-opacity="0"/>
<stop offset="1" stop-color="#9F5E2D"/>
</linearGradient>
<linearGradient id="paint29_linear_330_3178" x1="110.906" y1="102.726" x2="111.491" y2="85.0729" gradientUnits="userSpaceOnUse">
<stop stop-color="#FFF3E7"/>
<stop offset="1" stop-color="#EAC9A9"/>
</linearGradient>
<linearGradient id="paint30_linear_330_3178" x1="110.847" y1="87.7768" x2="110.847" y2="101.025" gradientUnits="userSpaceOnUse">
<stop stop-color="#24170C"/>
<stop offset="1" stop-color="#704A21"/>
</linearGradient>
<linearGradient id="paint31_linear_330_3178" x1="136.35" y1="103.978" x2="137.641" y2="86.2217" gradientUnits="userSpaceOnUse">
<stop stop-color="#FFF3E7"/>
<stop offset="1" stop-color="#EAC9A9"/>
</linearGradient>
<linearGradient id="paint32_linear_330_3178" x1="136.35" y1="103.978" x2="137.641" y2="86.2217" gradientUnits="userSpaceOnUse">
<stop stop-color="#FFF3E7"/>
<stop offset="1" stop-color="#EAC9A9"/>
</linearGradient>
<linearGradient id="paint33_linear_330_3178" x1="5.46832" y1="1.08646e-06" x2="5.46832" y2="13.124" gradientUnits="userSpaceOnUse">
<stop stop-color="#24170C"/>
<stop offset="1" stop-color="#704A21"/>
</linearGradient>
<linearGradient id="paint34_linear_330_3178" x1="118.977" y1="110.632" x2="128.23" y2="110.705" gradientUnits="userSpaceOnUse">
<stop stop-color="#751914"/>
<stop offset="1" stop-color="#B76D57"/>
</linearGradient>
<linearGradient id="paint35_linear_330_3178" x1="124.462" y1="102.527" x2="123.989" y2="106.111" gradientUnits="userSpaceOnUse">
<stop stop-color="#C27C63"/>
<stop offset="1" stop-color="#751A14"/>
</linearGradient>
<linearGradient id="paint36_linear_330_3178" x1="109.18" y1="78.519" x2="110.022" y2="80.7356" gradientUnits="userSpaceOnUse">
<stop stop-color="#B36342"/>
<stop offset="1" stop-color="#6B1010"/>
</linearGradient>
<linearGradient id="paint37_linear_330_3178" x1="139.987" y1="79.7351" x2="139.075" y2="81.9238" gradientUnits="userSpaceOnUse">
<stop stop-color="#AD5C3D"/>
<stop offset="1" stop-color="#721815"/>
</linearGradient>
<linearGradient id="paint38_linear_330_3178" x1="137.038" y1="139.15" x2="157.095" y2="147.006" gradientUnits="userSpaceOnUse">
<stop stop-color="#FBFBFB"/>
<stop offset="1" stop-color="#B0B0B0"/>
</linearGradient>
<linearGradient id="paint39_linear_330_3178" x1="87.8098" y1="139.832" x2="89.5404" y2="147.333" gradientUnits="userSpaceOnUse">
<stop stop-color="#744618"/>
<stop offset="1"/>
</linearGradient>
</defs>
</svg>
