<svg width="24" height="32" viewBox="0 0 24 32" fill="none" xmlns="http://www.w3.org/2000/svg">
<path d="M13.0746 0.941622C15.1516 -0.486043 18.5919 -0.0316077 20.0522 0.617403C21.7752 1.38306 22.2693 0.671751 22.6479 0.455294C22.1288 1.36387 22.4315 2.02412 22.6479 2.24045C23.2968 2.88958 23.4594 4.56629 23.4594 5.32346C23.441 5.91199 23.3631 6.45687 23.2436 6.96115C23.622 7.61992 23.8813 8.39882 23.9457 9.31369C23.9018 10.9299 23.5104 12.2139 22.9467 13.2346C22.956 13.3367 22.9661 13.4401 22.9721 13.5451C22.8327 19.8669 19.1866 22.0658 17.6176 22.8069C15.4104 23.6836 11.1808 23.524 9.34221 23.3342C5.70781 23.2046 4.79933 28.688 4.79924 31.4465C4.28005 32.0955 2.52768 32.042 1.71623 31.9338C-0.100941 31.6742 -0.123098 31.1766 0.0931816 30.9602C3.20866 26.5467 4.20376 20.8459 4.31193 18.466C4.31193 18.7906 4.63697 18.8993 4.79924 18.9533C13.366 20.5108 17.7794 19.3777 18.9154 18.6164C20.4234 17.8733 21.2661 16.3918 21.686 14.8977C20.5886 15.9845 19.3484 16.5522 18.5912 16.843C15.3844 18.2886 9.6392 17.9891 6.90861 17.6545C5.68859 17.253 5.35492 16.6086 5.47111 15.7385C5.61054 14.4535 6.22699 14.2663 6.34318 14.3332C15.3456 14.8965 18.6108 14.105 19.8891 13.4358C20.8825 13.0377 21.5593 12.4349 22.0121 11.7551C21.9801 11.3671 21.9183 11.0483 21.8363 10.8322C21.7627 10.6381 21.6664 10.4196 21.5414 10.1848C20.6374 11.1687 19.6095 11.7447 18.9164 11.9758C15.9308 13.1441 10.0992 12.8947 7.55705 12.6242C6.42162 12.2996 6.15104 11.2179 6.2592 10.5149C6.38908 9.47711 6.96231 9.32519 7.07072 9.37912C14.4695 9.89832 18.6988 8.94637 19.8891 8.40549C19.93 8.39124 19.9702 8.37529 20.0102 8.36057C19.4572 7.91602 18.7531 7.49103 17.849 7.13986C16.4967 6.80723 12.9436 6.52128 10.477 7.63889C11.613 7.10667 14.6317 6.20239 17.6176 6.84104C18.3419 6.99013 19.3903 7.41587 20.3695 8.21604C21.2973 7.8091 21.9067 7.26739 22.2944 6.69553C21.7072 5.78335 20.598 4.58809 18.5912 4.18674C17.2389 3.91632 13.9178 3.60334 11.4516 4.51193C12.5874 4.07925 15.6056 3.34336 18.5912 3.86252C19.6517 4.03993 21.4084 4.69906 22.6225 6.09201C22.9587 5.29544 22.9388 4.51413 22.81 4.02463C22.1958 2.18276 20.6616 2.90636 19.8569 3.58518C20.4177 3.03951 20.6784 2.11012 20.3764 1.75315C18.5916 -0.35609 14.8596 0.238543 13.0746 0.941622ZM22.8246 8.21799C22.5502 8.8444 22.2061 9.387 21.8285 9.85178C22.0503 10.1983 22.25 10.578 22.4184 10.9944C22.8282 10.0214 22.8865 8.99171 22.8246 8.21799Z" fill="url(#paint0_linear_104_357)"/>
<defs>
<linearGradient id="paint0_linear_104_357" x1="0" y1="0" x2="27.5992" y2="3.5433" gradientUnits="userSpaceOnUse">
<stop stop-color="#C99BDB"/>
<stop offset="1" stop-color="#416EB7"/>
</linearGradient>
</defs>
</svg>
