<svg width="18" height="20" viewBox="0 0 18 20" fill="none" xmlns="http://www.w3.org/2000/svg">
<path d="M14.2061 0.00488281C16.3194 0.112145 18 1.85998 18 4V12.8418C18 14.9818 16.3194 16.7296 14.2061 16.8369L14 16.8418H13.4102C13.0373 18.5816 11.5341 19.9024 9.70605 19.9951L9.5 20H4C1.79096 20 0.000159381 18.209 0 16V7.1582C0 4.94906 1.79086 3.1582 4 3.1582H4.58984C4.97653 1.35341 6.57973 1.72656e-05 8.5 0H14L14.2061 0.00488281ZM4 4.6582C2.61929 4.6582 1.5 5.77749 1.5 7.1582V16C1.50016 17.3806 2.61939 18.5 4 18.5H9.5C10.8806 18.5 11.9998 17.3806 12 16V7.1582C12 5.77749 10.8807 4.6582 9.5 4.6582H4ZM9.70605 3.16309C11.8194 3.27033 13.5 5.01817 13.5 7.1582V15.3418H14C15.3807 15.3418 16.5 14.2225 16.5 12.8418V4C16.5 2.61931 15.3807 1.50003 14 1.5H8.5C7.41505 1.50002 6.4943 2.19218 6.14844 3.1582H9.5L9.70605 3.16309Z" fill="white"/>
</svg>
