<svg width="100%" height="100%" viewBox="64 32 40 40" fill="none" xmlns="http://www.w3.org/2000/svg">

<g filter="url(#filter0_dddi_205_3324)">
<rect x="64" y="32" width="40" height="40" rx="16" fill="#D53636" fill-opacity="0.5" shape-rendering="crispEdges"/>
<rect x="64.5" y="32.5" width="39" height="39" rx="15.5" stroke="white" stroke-opacity="0.08" shape-rendering="crispEdges"/>
<rect x="64.5" y="32.5" width="39" height="39" rx="15.5" stroke="url(#paint0_linear_205_3324)" style="mix-blend-mode:overlay" shape-rendering="crispEdges"/>
<path d="M72.4705 47.9339C73.3392 44.2307 76.2307 41.3392 79.9339 40.4705C82.6083 39.8432 85.3917 39.8432 88.0661 40.4705C91.7693 41.3392 94.6608 44.2307 95.5295 47.9339C96.1568 50.6083 96.1568 53.3917 95.5295 56.0661C94.6608 59.7693 91.7693 62.6608 88.0661 63.5295C85.3917 64.1568 82.6083 64.1568 79.9339 63.5295C76.2307 62.6608 73.3392 59.7693 72.4705 56.0661C71.8432 53.3917 71.8432 50.6083 72.4705 47.9339Z" stroke="white" stroke-width="1.5"/>
<path d="M86.3571 49.6429L81.6431 54.357M86.3571 54.357L81.6431 49.6429" stroke="white" stroke-width="1.5" stroke-linecap="round"/>
</g>
<defs>
<filter id="filter0_dddi_205_3324" x="0" y="0" width="168" height="168" filterUnits="userSpaceOnUse" color-interpolation-filters="sRGB">
<feFlood flood-opacity="0" result="BackgroundImageFix"/>
<feColorMatrix in="SourceAlpha" type="matrix" values="0 0 0 0 0 0 0 0 0 0 0 0 0 0 0 0 0 0 127 0" result="hardAlpha"/>
<feOffset dy="32"/>
<feGaussianBlur stdDeviation="32"/>
<feComposite in2="hardAlpha" operator="out"/>
<feColorMatrix type="matrix" values="0 0 0 0 0 0 0 0 0 0 0 0 0 0 0 0 0 0 0.1 0"/>
<feBlend mode="normal" in2="BackgroundImageFix" result="effect1_dropShadow_205_3324"/>
<feColorMatrix in="SourceAlpha" type="matrix" values="0 0 0 0 0 0 0 0 0 0 0 0 0 0 0 0 0 0 127 0" result="hardAlpha"/>
<feOffset dy="16"/>
<feGaussianBlur stdDeviation="16"/>
<feComposite in2="hardAlpha" operator="out"/>
<feColorMatrix type="matrix" values="0 0 0 0 0 0 0 0 0 0 0 0 0 0 0 0 0 0 0.05 0"/>
<feBlend mode="normal" in2="effect1_dropShadow_205_3324" result="effect2_dropShadow_205_3324"/>
<feColorMatrix in="SourceAlpha" type="matrix" values="0 0 0 0 0 0 0 0 0 0 0 0 0 0 0 0 0 0 127 0" result="hardAlpha"/>
<feOffset dy="4"/>
<feGaussianBlur stdDeviation="4"/>
<feComposite in2="hardAlpha" operator="out"/>
<feColorMatrix type="matrix" values="0 0 0 0 0 0 0 0 0 0 0 0 0 0 0 0 0 0 0.05 0"/>
<feBlend mode="normal" in2="effect2_dropShadow_205_3324" result="effect3_dropShadow_205_3324"/>
<feBlend mode="normal" in="SourceGraphic" in2="effect3_dropShadow_205_3324" result="shape"/>
<feColorMatrix in="SourceAlpha" type="matrix" values="0 0 0 0 0 0 0 0 0 0 0 0 0 0 0 0 0 0 127 0" result="hardAlpha"/>
<feOffset dy="48"/>
<feGaussianBlur stdDeviation="50"/>
<feComposite in2="hardAlpha" operator="arithmetic" k2="-1" k3="1"/>
<feColorMatrix type="matrix" values="0 0 0 0 1 0 0 0 0 1 0 0 0 0 1 0 0 0 0.15 0"/>
<feBlend mode="normal" in2="shape" result="effect4_innerShadow_205_3324"/>
</filter>
<linearGradient id="paint0_linear_205_3324" x1="79.125" y1="59.7446" x2="96.9972" y2="34.4309" gradientUnits="userSpaceOnUse">
<stop stop-color="white" stop-opacity="0"/>
<stop offset="1" stop-color="white"/>
</linearGradient>
</defs>
</svg>
