<svg width="1440" height="219" viewBox="0 0 1440 219" fill="none" xmlns="http://www.w3.org/2000/svg">
<path d="M719.5 219C236.527 219 -154.999 135.408 -155 32.293C-155 21.2791 -150.53 10.4904 -141.962 0C-51.7301 82.9009 299.973 144.729 720.088 144.729C1139.16 144.729 1490.16 83.2065 1581.46 0.615234C1589.71 10.9116 1594 21.4949 1594 32.293C1594 135.408 1202.47 219 719.5 219Z" fill="url(#paint0_linear_2310_329)" fill-opacity="0.5"/>
<path d="M719.5 219C236.527 219 -154.999 135.408 -155 32.293C-155 21.2791 -150.53 10.4904 -141.962 0C-51.7301 82.9009 299.973 144.729 720.088 144.729C1139.16 144.729 1490.16 83.2065 1581.46 0.615234C1589.71 10.9116 1594 21.4949 1594 32.293C1594 135.408 1202.47 219 719.5 219Z" fill="black" fill-opacity="0.2"/>
<defs>
<linearGradient id="paint0_linear_2310_329" x1="1594" y1="219" x2="881.855" y2="-756.745" gradientUnits="userSpaceOnUse">
<stop stop-color="#FEC888"/>
<stop offset="1" stop-color="#9AE7B8"/>
</linearGradient>
</defs>
</svg>
