<svg width="375" height="102" viewBox="0 0 375 102" fill="none" xmlns="http://www.w3.org/2000/svg">
<path d="M182.5 101.999C60.1692 101.999 -38.9996 63.0662 -39 15.04C-39 9.91069 -37.8671 4.88554 -35.6973 0C-12.8425 38.6112 76.2397 67.4072 182.649 67.4072C288.796 67.4072 377.701 38.7534 400.825 0.286133C402.913 5.08145 404 10.011 404 15.04C404 63.0662 304.831 101.999 182.5 101.999Z" fill="url(#paint0_linear_2310_412)" fill-opacity="0.5"/>
<path d="M182.5 101.999C60.1692 101.999 -38.9996 63.0662 -39 15.04C-39 9.91069 -37.8671 4.88554 -35.6973 0C-12.8425 38.6112 76.2397 67.4072 182.649 67.4072C288.796 67.4072 377.701 38.7534 400.825 0.286133C402.913 5.08145 404 10.011 404 15.04C404 63.0662 304.831 101.999 182.5 101.999Z" fill="black" fill-opacity="0.2"/>
<defs>
<linearGradient id="paint0_linear_2310_412" x1="404" y1="101.999" x2="70.2825" y2="-146.663" gradientUnits="userSpaceOnUse">
<stop stop-color="#FEC888"/>
<stop offset="1" stop-color="#9AE7B8"/>
</linearGradient>
</defs>
</svg>
